<svg width="28" height="32" viewBox="0 0 28 32" fill="none" xmlns="http://www.w3.org/2000/svg">
<path fill-rule="evenodd" clip-rule="evenodd" d="M14.0006 0.923889C18.4037 0.923889 22.974 1.29979 27.6128 2.10042C27.6821 3.96005 27.7606 6.83453 27.6286 9.27371C27.333 14.7121 26.1361 18.9331 23.8606 22.5579C21.5923 26.172 18.0798 29.2797 14.0006 31.1253C9.92138 29.2797 6.40862 26.172 4.14028 22.5579C1.86511 18.9331 0.667901 14.7121 0.372557 9.27371C0.239947 6.83453 0.31883 3.96005 0.388085 2.10042C5.02694 1.29979 9.59746 0.923889 14.0006 0.923889ZM14.0006 1.44779C9.65989 1.44779 5.25303 1.81686 0.895852 2.54535C0.8002 5.30417 0.8002 7.49928 0.895231 9.24542C1.1853 14.5911 2.35735 18.7329 4.58346 22.2793C6.80925 25.8254 10.1468 28.7546 14.0006 30.5492C17.854 28.7546 21.192 25.8254 23.4177 22.2793C25.6438 18.7329 26.8156 14.5911 27.106 9.24542C27.201 7.49928 27.201 5.30417 27.1053 2.54535C22.7482 1.81686 18.341 1.44779 14.0006 1.44779ZM13.9626 17.3285C13.9626 17.3285 14.0484 17.8375 14.0745 17.9852C14.089 18.0688 14.0922 18.0912 14.071 18.1733C14.0025 18.4372 13.6861 19.8285 13.4328 21.2526L13.3933 21.4776C13.2898 22.0774 13.2004 22.6729 13.1484 23.1822C13.1189 23.4717 13.1285 23.541 13.2049 23.7979C13.4213 24.5236 14.222 26.4196 14.3757 26.7653C14.3928 26.8036 14.403 26.8437 14.408 26.885L14.4658 27.3321C14.2092 26.9444 12.8154 24.3802 12.2679 22.9602C12.2033 22.793 12.1909 22.7106 12.2623 22.4031C12.6431 20.7717 13.6732 17.9995 13.9626 17.3285ZM11.93 13.3876C11.93 13.3876 12.0371 13.7348 12.1404 14.1119L12.1765 14.2457C12.2418 14.4914 12.3 14.734 12.321 14.8875C12.3412 15.0351 12.3378 15.0749 12.2853 15.2164C12.158 15.5553 11.9238 16.1004 11.674 16.6576L11.5662 16.8966C11.2597 17.5726 10.9494 18.2257 10.7987 18.5085C10.7244 18.6477 10.6546 18.7385 10.5148 18.8806C10.1959 19.2055 9.58529 19.8196 9.20734 20.1632C9.07007 20.2882 9.03311 20.3948 9.00516 20.5565C8.96013 20.8161 8.91541 21.2592 8.90299 21.488C8.89212 21.6892 8.92473 21.7834 9.03684 21.9827C9.70299 23.172 11.9269 25.9081 12.5605 26.4827C12.6064 26.5243 12.64 26.5523 12.7369 26.6167C12.83 26.6789 13.1338 26.876 13.1338 26.876C13.1459 26.8844 13.1561 26.8956 13.1639 26.9083L13.2738 27.102C13.2738 27.102 13.2636 27.0969 13.245 27.0877L13.1975 27.0641C13.1594 27.0451 13.1089 27.0199 13.0509 26.9909L12.9097 26.9202C12.6933 26.8115 12.4352 26.6808 12.2996 26.6077C12.2437 26.5775 12.1912 26.5421 12.1425 26.5013C11.4005 25.8845 9.1269 23.2214 8.45826 22.1096C8.29149 21.8319 8.27441 21.742 8.29677 21.4793C8.3387 20.9902 8.40361 20.3752 8.46044 20.1057C8.49491 19.9431 8.53062 19.8476 8.65516 19.704C9.07365 19.2218 9.58411 18.5852 10.0815 17.9321L10.2564 17.7011C11.0102 16.6991 11.7046 15.6962 11.9639 15.1853C12.0232 15.069 12.0282 15.0286 12.0294 14.9189C12.0328 14.6005 11.9313 13.9805 11.9046 13.8238C11.9005 13.7992 11.8993 13.7743 11.9015 13.7495L11.93 13.3876ZM18.1352 12.79L18.3274 12.8736C18.3842 12.8982 18.4361 12.9343 18.479 12.979C19.6575 14.2103 20.6001 15.4869 20.7889 15.8234C20.8252 15.888 20.8501 15.9527 20.8591 16.0267C21.0709 17.8223 20.8889 19.7245 20.4563 21.3792C20.4172 21.5285 20.3734 21.605 20.2299 21.7129C19.768 22.0606 19.0786 22.6151 18.3929 23.1804L18.1768 23.3591C17.3509 24.0435 16.5662 24.7137 16.2333 25.022C16.1497 25.0997 16.0768 25.1874 16.0171 25.2847C15.861 25.5388 15.6226 25.9759 15.5055 26.1929L15.4728 26.2536C15.4494 26.2974 15.4358 26.3229 15.4358 26.3229C15.2805 25.9837 14.942 25.156 14.8258 24.8215C14.7879 24.7123 14.7811 24.6551 14.8212 24.509C15.0106 23.8153 15.906 21.7987 16.0802 21.434L16.0805 21.5832C16.0805 21.605 16.0771 21.6264 16.0702 21.6469C15.9917 21.8854 15.5103 23.4748 15.4125 24.1642C15.3907 24.3174 15.3926 24.3588 15.4125 24.5093C15.4553 24.8311 15.6476 25.4212 15.6476 25.4212C15.6476 25.4212 15.7615 25.1831 15.8678 25.022C15.9199 24.943 15.9513 24.9051 16.0364 24.8205C16.4668 24.3944 17.2012 23.7357 17.966 23.0733L18.2368 22.8397C18.8243 22.3349 19.4109 21.8437 19.8743 21.4685C19.9948 21.3708 20.0398 21.3055 20.0665 21.1202C20.1995 20.2074 20.238 18.5688 20.1578 17.3764C20.1426 17.1513 20.0696 16.9337 19.9429 16.7468C19.6523 16.3168 19.3047 15.9098 18.7777 15.3871C18.7026 15.3122 18.6513 15.2164 18.6321 15.112C18.4783 14.2911 18.1352 12.79 18.1352 12.79ZM8.16857 14.6891C8.24187 14.6655 8.31982 14.6627 8.39435 14.6807C8.73038 14.7616 9.44156 14.936 9.97914 15.0737C10.0546 15.093 10.1487 15.1636 10.1888 15.2304L10.3059 15.4254C10.3468 15.4938 10.3496 15.5777 10.3133 15.6486C10.2156 15.8383 10.0762 16.095 9.92887 16.3598L9.8174 16.5589C9.61221 16.9234 9.40786 17.275 9.29187 17.4601C9.21548 17.5822 9.17293 17.6363 9.0369 17.6845C8.50802 17.8708 7.85118 18.0934 7.4608 18.2199C7.38099 18.2458 7.35397 18.2943 7.3695 18.3829C7.39745 18.5442 7.48751 19.0921 7.52198 19.2519C7.53472 19.311 7.58192 19.3579 7.6695 19.3411C7.90025 19.2973 8.51454 19.1468 8.51454 19.1468C8.51454 19.1468 8.33348 19.3144 8.22509 19.4133C8.20522 19.4319 8.18224 19.4456 8.15646 19.454C7.98907 19.51 7.58037 19.6247 7.45304 19.6527C7.35366 19.6741 7.29031 19.635 7.26484 19.5224C7.26484 19.5224 7.09062 18.7799 7.02757 18.5275C7.01763 18.4889 7.0077 18.4556 6.99558 18.4177C6.94838 18.2716 6.83502 17.9843 6.77105 17.8338C6.76359 17.8164 6.75987 17.7977 6.76016 17.7784C6.76204 17.6065 6.79372 17.2228 6.79372 17.2228C6.79372 17.2228 7.16981 17.5757 7.3518 17.7032C7.39279 17.7321 7.41733 17.738 7.46764 17.7253C7.71764 17.6609 8.29249 17.4706 8.60802 17.3525C8.68007 17.3254 8.74311 17.28 8.79218 17.2206C9.11858 16.8261 9.5279 16.2123 9.76424 15.7494C9.79685 15.6856 9.80306 15.6126 9.78256 15.5441L9.73163 15.3763C9.71672 15.3271 9.66486 15.2718 9.61703 15.2534C9.06081 15.0417 8.6223 14.8844 8.10708 14.7087L8.16857 14.6891ZM19.1689 9.91033C19.2912 9.86524 19.4254 9.86835 19.5456 9.91903C20.4779 10.3108 22.0456 11.2324 22.917 11.8816C23.0012 11.9444 23.0347 11.9876 23.0568 12.089C23.2614 13.0205 23.3391 14.4604 23.2102 15.6727C23.2009 15.7597 23.1835 15.8119 23.1381 15.9049C22.586 17.0351 21.9645 18.0988 21.3105 18.9193L21.3118 18.9059C21.3203 18.8185 21.3673 18.3258 21.3698 18.0593C21.3701 18.0291 21.3841 18.0015 21.408 17.9831C21.5294 17.8886 21.6962 17.7543 21.7906 17.6725C21.8366 17.6327 21.8621 17.6029 21.886 17.5643C22.1524 17.1334 22.6288 16.2311 22.8208 15.6882C22.8676 15.5557 22.8863 15.4155 22.8748 15.2753C22.8133 14.5188 22.6947 13.4707 22.518 12.7867C22.4878 12.6701 22.4108 12.5715 22.3037 12.5165C22.1512 12.4381 21.8521 12.3016 21.1711 12.0283C21.0766 11.9904 20.9884 11.9379 20.9108 11.8726C20.4642 11.497 19.7661 10.9339 19.3316 10.6099C19.2046 10.5151 19.0425 10.4806 18.8878 10.5157C18.5713 10.5875 18.1685 10.6876 17.9418 10.7492C17.8648 10.77 17.8344 10.7719 17.7549 10.7626C17.7135 10.7578 17.66 10.7525 17.6037 10.7474L17.5186 10.7399C17.4196 10.7314 17.3267 10.7243 17.2903 10.7215L17.2741 10.7203C18.013 10.373 18.7238 10.0733 19.1689 9.91033ZM9.31159 16.0248C9.08053 16.4054 8.80445 16.8096 8.59575 17.062C8.56842 17.095 8.53208 17.1205 8.49078 17.136C8.26252 17.2215 7.88208 17.3503 7.60195 17.4358L9.31159 16.0248ZM6.25784 15.5252L6.12151 16.4669L5.65784 15.9222C5.74231 15.7391 5.98921 15.5662 6.25784 15.5252ZM8.75535 10.1932L8.62864 10.3493C8.62149 10.3561 8.61466 10.3627 8.60752 10.3698C8.49603 10.4522 8.02677 10.8119 7.89975 10.9127C7.86373 10.9413 7.84944 10.9662 7.84105 11.0112C7.81248 11.1704 7.76497 11.473 7.75099 11.6405C7.74695 11.6897 7.72584 11.7139 7.67584 11.7341C7.45813 11.8227 7.20006 11.916 6.99136 11.9997C6.94664 12.0174 6.93422 12.0242 6.90782 12.0444C6.88701 12.0606 6.60968 12.3084 6.60968 12.3084C6.60968 12.3084 7.21248 12.1598 7.4336 12.1097C7.48639 12.0979 7.50907 12.101 7.55782 12.124C7.60348 12.1452 7.67956 12.1753 7.71962 12.1899C7.78112 12.2126 7.81373 12.2117 7.88174 12.1968C8.13081 12.1411 8.54976 12.0416 8.77274 11.9835C8.88858 11.9533 8.95193 11.9219 9.05007 11.8532C9.1569 11.7789 9.4274 11.5759 9.4274 11.5759C9.4274 11.5759 9.42243 11.6116 9.4187 11.6315C9.41591 11.6486 9.4097 11.6583 9.39852 11.6716C9.34355 11.7379 9.24728 11.8458 9.19945 11.8952C9.08982 12.0087 9.02429 12.0491 8.88671 12.1066C8.25317 12.3709 7.17055 12.7813 6.35844 13.0627C6.30533 13.0814 6.28235 13.0966 6.24291 13.137C6.20005 13.1805 6.14291 13.244 6.14291 13.244C6.14291 13.244 6.80502 13.2922 7.0072 13.3155C7.07273 13.3229 7.11962 13.3444 7.16962 13.3876C7.33577 13.5306 7.88578 14.0975 8.05037 14.2943C8.05037 14.2943 6.4867 14.5545 5.76216 14.7345C5.67272 14.7566 5.628 14.8135 5.60781 14.8853C5.54787 15.0961 5.40657 15.774 5.40657 15.774C5.40657 15.774 5.35626 15.7578 5.28607 15.7174C5.23793 15.6897 5.2134 15.6667 5.1606 15.6107C4.98917 15.4295 4.70749 15.0825 4.57209 14.8813C4.53234 14.8219 4.51557 14.7464 4.56526 14.6857C4.71215 14.5048 5.00718 14.1746 5.16992 14.0048C5.18731 13.9865 5.20936 13.9544 5.23265 13.9084C5.28741 13.7995 5.35959 13.5238 5.38473 13.4242L5.39276 13.392L5.39383 13.3876C5.39383 13.3876 5.39228 13.3886 5.38947 13.3904L5.35975 13.4091C5.31947 13.4344 5.25439 13.4754 5.22644 13.493C5.18452 13.5198 5.17302 13.5313 5.15563 13.568C5.12924 13.6233 5.08296 13.7107 5.04787 13.7713C5.03638 13.7912 5.00563 13.822 4.98917 13.8347C4.78141 13.9936 4.5519 14.1643 4.38855 14.2793C4.37737 14.2871 4.36308 14.2837 4.35345 14.2744C4.33265 14.2535 4.24538 14.1544 4.22985 14.131C4.21681 14.1114 4.21089 14.0931 4.21089 14.0695C4.2106 14.0281 4.21463 13.9554 4.21867 13.9013C4.22364 13.8372 4.24196 13.8067 4.31991 13.7259C4.40718 13.6354 4.50221 13.5403 4.60221 13.4427C4.84725 13.2362 5.46588 12.7338 6.57055 11.9446C6.59136 11.9297 6.6103 11.9123 6.62552 11.8915C6.74167 11.7348 7.07117 11.3069 7.15254 11.2053C7.16403 11.191 7.17676 11.1776 7.19136 11.1661C7.32149 11.0632 7.38577 11.0187 7.51776 10.9354C7.82553 10.7414 8.42149 10.3875 8.75535 10.1932ZM15.4884 9.84326C15.5346 9.83518 15.5822 9.84171 15.6247 9.86192L15.9474 10.0164C15.9791 10.0317 16.0024 10.0606 16.0107 10.0954C16.0545 10.2801 16.1083 10.5248 16.1443 10.7328C16.1589 10.8192 16.1427 10.9075 16.0989 10.9837C15.9654 11.216 15.6912 11.6339 15.5378 11.8583C15.5036 11.9087 15.4996 11.9697 15.5101 12.0297C15.5797 12.4146 15.8697 13.7587 15.8697 13.7587L15.6871 13.5924C15.6508 13.5588 15.6269 13.5233 15.6114 13.477C15.4815 13.0968 15.2387 12.3023 15.1269 11.9159C15.1089 11.8521 15.1225 11.784 15.1645 11.7334C15.3548 11.502 15.6322 11.132 15.7943 10.8976C15.8396 10.8317 15.8545 10.7589 15.8278 10.7045C15.7905 10.628 15.7278 10.5117 15.6676 10.4063C15.6514 10.3771 15.6244 10.3554 15.5924 10.3448L15.3735 10.2745C15.3353 10.2624 15.2943 10.263 15.2564 10.2767C14.7794 10.4499 14.1377 10.6995 13.7452 10.8625C13.6877 10.8864 13.6641 10.8883 13.5946 10.8777C13.4809 10.8609 13.1498 10.8015 12.9874 10.7711C12.9582 10.7655 12.9436 10.7325 12.9585 10.7067L13.1511 10.3728C13.1772 10.3277 13.2203 10.2957 13.2713 10.2841C13.8905 10.143 14.7095 9.98069 15.4884 9.84326ZM8.63578 11.3768C8.66528 11.3743 8.69323 11.3908 8.70473 11.4178C8.74355 11.5083 8.73299 11.6094 8.69541 11.6958C8.68081 11.7309 8.63578 11.7651 8.59882 11.7732L8.28982 11.8419C8.27118 11.846 8.2541 11.8311 8.25534 11.8121L8.28423 11.4489C8.2864 11.4244 8.30565 11.4048 8.33019 11.4029L8.63578 11.3768ZM12.1518 9.04335C12.1875 9.04304 12.2099 9.08159 12.1922 9.11238L11.4388 10.4111C11.3969 10.4876 11.3267 10.5445 11.2434 10.5697L9.8307 11.0121C9.66672 11.0619 9.52821 11.0886 9.3574 11.1017C9.04404 11.1253 8.11329 11.1545 8.11329 11.1545L8.13379 11.1104C8.14342 11.0895 8.1605 11.0731 8.18162 11.064L8.62199 10.8769C8.65491 10.8629 8.68379 10.8414 8.70584 10.8137L9.38597 9.9755C9.42231 9.93072 9.46982 9.88782 9.52044 9.86108C9.96983 9.62446 10.7689 9.26908 11.3285 9.0819C11.3813 9.06418 11.4524 9.05299 11.508 9.05237L12.1518 9.04335ZM11.3965 7.53519C12.9556 7.39807 15.0652 7.36076 17.0804 7.51343C17.195 7.52213 17.3065 7.54918 17.4124 7.59395C18.0727 7.87192 19.2441 8.48008 20.5466 9.22599C20.6041 9.25894 20.6581 9.2975 20.7078 9.34134C21.0528 9.64573 21.927 10.5412 21.927 10.5412L21.6544 10.4871C21.6162 10.4796 21.5805 10.4647 21.5482 10.4429C20.9966 10.072 20.1913 9.58914 19.5165 9.24868C19.4363 9.20857 19.3497 9.18277 19.2606 9.17344C18.9323 9.13831 18.4885 9.10752 18.1981 9.09571C18.055 9.0898 17.9575 9.06586 17.8174 8.99466C17.5497 8.85879 16.9012 8.56434 16.5783 8.44091C16.4401 8.38805 16.3696 8.37561 16.2342 8.37779C15.6792 8.38587 14.4149 8.42629 13.7692 8.4664C13.7469 8.46765 13.7254 8.46671 13.7037 8.46329L13.3959 8.4151C14.2686 8.26461 16.4258 8.07215 17.3186 8.0252L16.9553 7.90363C16.8851 7.88031 16.8121 7.86788 16.7379 7.86601C16.5441 7.86139 16.113 7.85277 15.5535 7.85201L15.3624 7.85207C14.5149 7.85371 13.4245 7.87453 12.4189 7.95027C12.331 7.9568 12.2453 7.97794 12.1646 8.0137C11.7583 8.19232 10.7678 8.73001 9.77436 9.28229L9.55378 9.40512C9.29694 9.54838 9.0428 9.6909 8.8015 9.82669C8.8015 9.82669 8.92541 9.66718 8.94932 9.63609C8.97044 9.60904 8.97696 9.60407 9.00553 9.58541C9.04545 9.55921 9.18175 9.46933 9.31915 9.37814L9.42093 9.31047C9.50343 9.25549 9.57707 9.20609 9.61858 9.17748C9.63908 9.16349 9.65212 9.15354 9.6779 9.13426C9.97697 8.90854 10.449 8.51055 10.7304 8.26399C10.7941 8.20834 10.8481 8.14367 10.8925 8.07153C10.9835 7.92415 11.0829 7.76434 11.1441 7.67573C11.1962 7.59893 11.2854 7.54514 11.3965 7.53519ZM4.75752 3.94904C5.14262 3.90924 5.35784 4.05911 5.35784 4.44932V4.6651C5.35784 5.06432 5.14262 5.22569 4.75752 5.2658C4.22491 5.32145 3.6923 5.38177 3.16062 5.44707V6.03689C3.04913 6.05057 2.93733 6.06425 2.82583 6.07855V4.17228C3.46901 4.09082 4.1128 4.01651 4.75752 3.94904ZM22.6308 3.88723C23.4798 3.96993 24.3283 4.06508 25.1752 4.17203V4.47954C24.809 4.43321 24.4423 4.38906 24.0752 4.34739V5.94647C23.9637 5.93372 23.8522 5.92128 23.7401 5.90885V4.30977C23.3708 4.26904 23.0006 4.2308 22.6308 4.19473V3.88723ZM8.52569 3.63669V3.94388C7.82723 3.9871 7.12909 4.0384 6.43157 4.09779V4.56728C7.05207 4.51411 7.67289 4.46778 8.29401 4.42799V4.73549C7.67289 4.77529 7.05207 4.82161 6.43157 4.87447V5.38967C7.12909 5.32997 7.82723 5.27867 8.52569 5.23576V5.54295C7.71792 5.5927 6.91077 5.65364 6.10393 5.72547V3.81889C6.91077 3.74707 7.71792 3.68644 8.52569 3.63669ZM19.3888 4.15888C19.3888 3.73136 19.6006 3.64337 20.078 3.67571C20.4972 3.70462 20.9159 3.73603 21.3348 3.77085C21.7494 3.80505 22.023 3.92165 22.023 4.35787V5.20918C22.023 5.63732 21.7867 5.71443 21.3348 5.67712C20.9159 5.6426 20.4972 5.61089 20.078 5.58229C19.6214 5.5515 19.3888 5.4632 19.3888 5.01019V4.15888ZM16.1406 3.49394C16.9493 3.51322 17.7577 3.54369 18.5661 3.58535V3.89255C17.8674 3.85679 17.1683 3.82912 16.4689 3.80984V4.27902C17.091 4.29643 17.7127 4.32006 18.3341 4.35022V4.65773C17.7127 4.62757 17.091 4.60363 16.4689 4.58653V5.10141C17.1683 5.12069 17.8674 5.14836 18.5661 5.18443V5.49162C17.7577 5.45027 16.9493 5.4198 16.1406 5.40021V3.49394ZM11.9326 3.49226V4.87121C11.9326 5.30743 11.7037 5.40319 11.2425 5.4175C10.841 5.42993 10.4394 5.44486 10.0378 5.46289C9.60989 5.48217 9.34839 5.40071 9.34839 4.96884V3.58989L9.67635 3.5731V5.01019C9.67635 5.09756 9.75119 5.16876 9.85057 5.16409C10.377 5.13953 10.9031 5.11963 11.4295 5.1044C11.5295 5.1016 11.5959 5.02511 11.5959 4.93774V3.50066C11.708 3.49755 11.8202 3.49475 11.9326 3.49226ZM19.8913 3.97077C19.7916 3.96393 19.7168 4.03389 19.7168 4.1337V5.07642C19.7168 5.16378 19.7916 5.25551 19.8913 5.26235C20.4351 5.29841 20.9783 5.33946 21.5215 5.38547C21.6084 5.39293 21.6954 5.31303 21.6954 5.22597V4.28294C21.6954 4.18345 21.6084 4.10105 21.5215 4.09359C20.9783 4.04757 20.4351 4.00653 19.8913 3.97077ZM13.3828 3.47038C13.9856 3.46602 14.5884 3.4682 15.1909 3.47628V3.78347C14.5468 3.77508 13.9024 3.77321 13.258 3.7785C13.1707 3.77943 13.0834 3.85499 13.0834 3.94236V4.89751C13.0834 4.98488 13.1707 5.07132 13.258 5.07038C13.8359 5.06541 14.4136 5.06634 14.9915 5.07287V4.55767C14.6561 4.55394 14.3207 4.55208 13.9856 4.55239V4.24488C14.4303 4.24488 14.875 4.2483 15.3198 4.25483V5.38441C14.6949 5.37509 14.0701 5.3726 13.4452 5.37633C12.9878 5.37944 12.7552 5.30047 12.7552 4.85585V4.02506C12.7552 3.60998 12.9629 3.47348 13.3828 3.47038ZM4.88282 4.24577L4.8569 4.24628C4.29106 4.30474 3.72553 4.36848 3.16062 4.43781V5.13956C3.72553 5.07054 4.29106 5.00649 4.8569 4.94835C4.94355 4.93902 5.03051 4.85973 5.03051 4.77672V4.39055C5.03051 4.30318 4.94355 4.23727 4.8569 4.24628L4.88282 4.24577Z" fill="black"/>
</svg>
