<svg width="30" height="19" viewBox="0 0 30 19" fill="none" xmlns="http://www.w3.org/2000/svg">
<path d="M11.7844 11.1055C11.7844 13.6609 11.2854 15.6155 10.2874 16.9693C9.28942 18.3231 7.82834 19 5.90419 19C4.00399 19 2.5509 18.3358 1.54491 17.0073C0.538922 15.6789 0.0239521 13.7751 0 11.2959V7.89446C0 5.31374 0.502994 3.35493 1.50898 2.01804C2.52295 0.68114 3.98004 0.0126921 5.88024 0.0126921C7.78044 0.0126921 9.23353 0.676909 10.2395 2.00534C11.2455 3.32532 11.7605 5.22489 11.7844 7.70407V11.1055ZM8.32335 7.37408C8.32335 5.84257 8.12375 4.7299 7.72455 4.03607C7.33333 3.33378 6.71856 2.98263 5.88024 2.98263C5.06587 2.98263 4.46307 3.31686 4.07186 3.9853C3.68862 4.64529 3.48503 5.68181 3.46108 7.09486V11.5878C3.46108 13.094 3.65269 14.2151 4.03593 14.9512C4.42715 15.6789 5.0499 16.0428 5.90419 16.0428C6.7505 16.0428 7.36128 15.6916 7.73653 14.9893C8.11178 14.287 8.30739 13.2124 8.32335 11.7655V7.37408Z" fill="#CA0100"/>
<path d="M14.0838 3.82031C14.0838 2.68648 14.4311 1.76843 15.1257 1.06613C15.8204 0.355377 16.7305 0 17.8563 0C18.998 0 19.9162 0.351147 20.6108 1.05344C21.3054 1.74727 21.6527 2.69071 21.6527 3.88377V4.7976C21.6527 5.93988 21.3054 6.85794 20.6108 7.55177C19.9162 8.2456 19.006 8.59252 17.8802 8.59252C16.7465 8.59252 15.8283 8.2456 15.1257 7.55177C14.4311 6.84948 14.0838 5.90603 14.0838 4.72144V3.82031ZM16.3832 4.7976C16.3832 5.30528 16.519 5.71565 16.7904 6.02872C17.0699 6.33333 17.4331 6.48564 17.8802 6.48564C18.3273 6.48564 18.6826 6.3291 18.9461 6.01603C19.2096 5.70296 19.3413 5.28412 19.3413 4.75952V3.82031C19.3413 3.31263 19.2096 2.90225 18.9461 2.58918C18.6826 2.27611 18.3194 2.11957 17.8563 2.11957C17.4172 2.11957 17.0619 2.27611 16.7904 2.58918C16.519 2.89379 16.3832 3.32109 16.3832 3.87108V4.7976ZM22.4192 14.2151C22.4192 13.0728 22.7705 12.1548 23.4731 11.4609C24.1756 10.7586 25.0858 10.4075 26.2036 10.4075C27.3373 10.4075 28.2515 10.7544 28.9461 11.4482C29.6487 12.1336 30 13.0813 30 14.2912V15.2051C30 16.3389 29.6567 17.257 28.9701 17.9593C28.2834 18.6531 27.3693 19 26.2275 19C25.0778 19 24.1557 18.6489 23.4611 17.9466C22.7665 17.2443 22.4192 16.3135 22.4192 15.1543V14.2151ZM24.7186 15.2051C24.7186 15.6705 24.8623 16.0681 25.1497 16.3981C25.4371 16.7281 25.7964 16.8931 26.2275 16.8931C27.2016 16.8931 27.6886 16.322 27.6886 15.1797V14.2151C27.6886 13.7074 27.5529 13.3013 27.2814 12.9967C27.01 12.6836 26.6507 12.5271 26.2036 12.5271C25.7565 12.5271 25.3972 12.6836 25.1257 12.9967C24.8543 13.3013 24.7186 13.7201 24.7186 14.2532V15.2051ZM18.5629 17.3627L16.8743 16.3981L25.3892 1.95458L27.0778 2.91917L18.5629 17.3627Z" fill="#CA0100"/>
</svg>
