<svg width="119" height="83" viewBox="0 0 119 83" fill="none" xmlns="http://www.w3.org/2000/svg">
<path d="M25.5216 58.6053C17.7695 58.6053 11.5778 55.9708 6.9467 50.7018C2.31557 45.4327 0 38.2748 0 29.2281C0 20.2807 2.31557 13.1725 6.9467 7.9035C11.5778 2.6345 17.7695 0 25.5216 0C33.2737 0 39.4653 2.6345 44.0964 7.9035C48.7276 13.1725 51.0431 20.2807 51.0431 29.2281C51.0431 38.2748 48.7276 45.4327 44.0964 50.7018C39.4653 55.9708 33.2737 58.6053 25.5216 58.6053ZM85.4746 0.894734H101.029L33.6764 106.772H18.1218L85.4746 0.894734ZM25.5216 45.7807C32.2669 45.7807 35.6396 40.2632 35.6396 29.2281C35.6396 18.2924 32.2669 12.8246 25.5216 12.8246C18.7762 12.8246 15.4036 18.2924 15.4036 29.2281C15.4036 40.2632 18.7762 45.7807 25.5216 45.7807ZM93.4784 107.667C85.6256 107.667 79.3837 105.032 74.7525 99.7632C70.1214 94.3947 67.8058 87.2368 67.8058 78.2895C67.8058 69.3421 70.1214 62.2339 74.7525 56.9649C79.4843 51.6959 85.7263 49.0614 93.4784 49.0614C101.231 49.0614 107.422 51.6959 112.053 56.9649C116.684 62.2339 119 69.3421 119 78.2895C119 87.3363 116.684 94.4941 112.053 99.7632C107.422 105.032 101.231 107.667 93.4784 107.667ZM93.4784 94.8421C100.224 94.8421 103.596 89.3246 103.596 78.2895C103.596 67.3538 100.224 61.886 93.4784 61.886C86.6324 61.886 83.2094 67.3538 83.2094 78.2895C83.2094 89.3246 86.6324 94.8421 93.4784 94.8421Z" fill="#EFF0F0"/>
</svg>
