<svg width="159" height="112" viewBox="0 0 159 112" fill="none" xmlns="http://www.w3.org/2000/svg">
<g opacity="0.5" clip-path="url(#clip0_2157_32559)">
<path d="M135.277 89.4194H23.3359V96.5162H135.277V89.4194Z" fill="#79797A" stroke="#282828" stroke-width="0.6782" stroke-linejoin="round"/>
<path d="M12.822 43.4839C13.3349 42.0645 13.976 40.3871 14.8736 38.7097C15.13 38.3226 15.2583 37.9355 15.5147 37.6774L13.4631 33.9355L8.71875 35.4839C9.35988 36.7742 10.001 38.1936 10.6421 39.4839C11.2833 40.9032 12.0526 42.1936 12.822 43.4839Z" fill="white" stroke="#282828" stroke-width="0.6782" stroke-miterlimit="10"/>
<path d="M15.0006 30.7097C15.0006 28.129 11.7949 25.9355 7.69168 25.9355C3.58846 25.9355 0.382812 28 0.382812 30.7097C0.382812 33.4194 3.58846 35.4839 7.69168 35.4839C11.6667 35.3548 15.0006 33.2903 15.0006 30.7097Z" fill="#A5A4A4" stroke="#282828" stroke-width="0.6782" stroke-linejoin="round"/>
<path d="M7.69272 33.6774C10.8087 33.6774 13.3347 32.3487 13.3347 30.7096C13.3347 29.0706 10.8087 27.7419 7.69272 27.7419C4.57676 27.7419 2.05078 29.0706 2.05078 30.7096C2.05078 32.3487 4.57676 33.6774 7.69272 33.6774Z" fill="#DBDBDB" stroke="#282828" stroke-width="0.6782" stroke-miterlimit="10"/>
<path d="M146.177 43.4839C145.664 42.0645 145.023 40.3871 144.126 38.7097C143.869 38.3226 143.741 37.9355 143.484 37.6774L145.536 33.9355L150.28 35.4839C149.639 36.7742 148.998 38.1936 148.357 39.4839C147.588 40.9032 146.946 42.1936 146.177 43.4839Z" fill="white" stroke="#282828" stroke-width="0.6782" stroke-miterlimit="10"/>
<path d="M143.996 30.7097C143.996 28.129 147.202 25.9355 151.305 25.9355C155.28 25.9355 158.614 28 158.614 30.7097C158.614 33.4194 155.408 35.4839 151.305 35.4839C147.33 35.3548 143.996 33.2903 143.996 30.7097Z" fill="#A5A4A4" stroke="#282828" stroke-width="0.6782" stroke-linejoin="round"/>
<path d="M151.306 33.6774C154.422 33.6774 156.948 32.3487 156.948 30.7096C156.948 29.0706 154.422 27.7419 151.306 27.7419C148.19 27.7419 145.664 29.0706 145.664 30.7096C145.664 32.3487 148.19 33.6774 151.306 33.6774Z" fill="#DBDBDB" stroke="#282828" stroke-width="0.6782" stroke-miterlimit="10"/>
<path d="M9.74219 62.5806V63.4838V106.839C9.74219 109.29 11.6656 111.226 14.1019 111.226H24.7446C27.1809 111.226 29.1043 109.29 29.1043 106.839V91.3548L9.74219 62.5806Z" fill="#A5A4A4" stroke="#282828" stroke-width="1.2" stroke-linejoin="round"/>
<path d="M149.253 62.5806V63.4838V106.839C149.253 109.29 147.329 111.226 144.893 111.226H134.25C131.814 111.226 129.891 109.29 129.891 106.839V91.3548L149.253 62.5806Z" fill="#A5A4A4" stroke="#282828" stroke-width="1.2" stroke-linejoin="round"/>
<path d="M79.4977 92.7742H141.303C143.226 92.7742 145.021 91.3548 145.406 89.4193L149.381 70.4516V49.0322C148.355 47.3548 147.457 45.8064 146.432 44.129C145.919 42.5806 145.278 40.6451 144.252 38.7097C142.841 36.129 141.303 34.0645 140.02 32.6451C138.482 28.129 136.43 23.0967 133.737 17.6774C131.557 13.4193 129.249 9.54836 127.069 6.32256C125.531 4.12901 123.094 2.70965 120.53 2.45159C118.478 2.32256 116.427 2.19352 114.375 2.06449C102.194 1.16127 90.6534 0.77417 79.4977 0.77417C68.3421 0.77417 56.8017 1.03223 44.8767 1.93546C42.8251 2.06449 40.7735 2.19352 38.7219 2.32256C36.0292 2.58062 33.5929 3.99998 32.1824 6.19352C30.0025 9.54836 27.6945 13.2903 25.5146 17.5484C22.8219 22.9677 20.7703 28 19.2316 32.5161C17.9493 33.9355 16.4106 36 15.0001 38.5806C13.9743 40.5161 13.205 42.4516 12.8203 44C11.7945 45.6774 10.8969 47.2258 9.87109 48.9032V70.3226L13.8461 89.2903C14.2308 91.2258 15.8977 92.6451 17.9493 92.6451H79.4977V92.7742Z" fill="#F8F8F8" stroke="#282828" stroke-width="1.2" stroke-linejoin="round"/>
<path d="M17.8209 44.1292C17.6927 45.8066 17.6927 49.1614 18.3338 51.8711V52.0001C19.4878 56.6453 23.7193 59.8711 28.4637 59.8711H79.4975" stroke="#282828" stroke-width="0.6782" stroke-linejoin="round"/>
<path d="M79.4989 27.9999C90.0134 27.9999 100.4 27.9999 110.914 27.9999C116.171 27.9999 121.429 27.4838 126.558 26.4516C126.686 26.4516 126.686 26.4516 126.814 26.4516C126.686 23.0967 126.301 19.4838 125.788 15.7419C125.532 13.6774 125.147 11.7419 124.763 9.93542C118.095 9.4193 111.171 9.0322 104.118 8.90317C95.6554 8.6451 87.4489 8.51607 79.4989 8.6451C71.5489 8.6451 63.3425 8.6451 54.8796 8.90317C47.8271 9.0322 40.9029 9.4193 34.2352 9.80639C33.8505 11.6128 33.4659 13.5483 33.2094 15.6128C32.5683 19.4838 32.3118 22.9677 32.1836 26.3225C32.3118 26.3225 32.3118 26.3225 32.44 26.3225C37.5691 27.3548 42.8263 27.8709 48.0836 27.8709C58.5981 27.9999 68.9844 27.9999 79.4989 27.9999Z" fill="#A5A4A4" stroke="#282828" stroke-width="0.6782" stroke-linejoin="round"/>
<path d="M141.177 44.1292C141.305 45.8066 141.305 49.1614 140.664 51.8711V52.0001C139.51 56.6453 135.278 59.8711 130.534 59.8711H79.5" stroke="#282828" stroke-width="0.6782" stroke-linejoin="round"/>
<path d="M17.5664 38.0645C17.5664 40.129 17.6946 42.1936 17.6946 44.129C27.9527 44.9032 38.2108 45.6774 48.4688 46.4516L52.7003 40.5161C48.7253 38.4516 41.16 35.3549 31.4148 35.4839C25.7729 35.6129 21.0285 36.9032 17.5664 38.0645Z" fill="#A5A4A4" stroke="#282828" stroke-width="0.6782" stroke-linejoin="round"/>
<path d="M141.302 38.0645C141.302 40.129 141.174 42.1936 141.174 44.129C130.916 44.9032 120.657 45.6774 110.399 46.4516L106.168 40.5161C110.143 38.4516 117.708 35.3549 127.453 35.4839C133.224 35.6129 137.968 36.9032 141.302 38.0645Z" fill="#A5A4A4" stroke="#282828" stroke-width="0.6782" stroke-linejoin="round"/>
<path d="M45.26 80.6452L39.7463 84.5162C38.977 85.0323 38.0794 85.4194 37.0536 85.4194H26.5391C27.8213 84.1291 30.0012 82.3226 33.2068 81.1613C38.7205 79.0968 43.4649 80.1291 45.26 80.6452Z" fill="#A5A4A4" stroke="#282828" stroke-width="0.6782" stroke-linejoin="round"/>
<path d="M113.734 80.6451L119.248 84.5161C120.017 85.0322 120.915 85.4193 121.941 85.4193H132.455C131.173 84.129 128.993 82.3225 125.788 81.1612C120.274 79.0967 115.53 80.129 113.734 80.6451Z" fill="#A5A4A4" stroke="#282828" stroke-width="0.6782" stroke-linejoin="round"/>
<path d="M145.92 86.8388H139.765L137.329 84.5162C132.2 79.613 125.404 76.9033 118.352 76.9033H79.4991H40.6467C33.5943 76.9033 26.7983 79.613 21.6693 84.5162L19.233 86.8388H13.0781" stroke="#282828" stroke-width="0.6782" stroke-linejoin="round"/>
<path d="M106.17 40.5161H79.4991H52.8281" stroke="#282828" stroke-width="0.6782" stroke-linejoin="round"/>
<path d="M110.399 46.4517L107.449 49.1613C105.526 50.9678 102.961 52 100.269 52H79.4962H58.7236C56.0308 52 53.4663 50.9678 51.5429 49.1613L48.5938 46.4517" stroke="#282828" stroke-width="0.6782" stroke-linejoin="round"/>
<path d="M126.558 26.4515C126.686 30.3225 126.558 34.3225 126.302 38.5806C125.917 45.5483 125.019 51.9999 123.737 57.8064C122.711 62.8386 118.352 66.4515 113.351 66.4515H79.4991H45.5193C40.3902 66.4515 36.1588 62.8386 35.133 57.8064C33.979 51.9999 33.0814 45.5483 32.5685 38.5806C32.312 34.3225 32.1838 30.3225 32.312 26.4515" stroke="#282828" stroke-width="0.6782" stroke-linejoin="round"/>
<path d="M34.2344 9.80637C34.6191 8.51605 35.132 7.0967 35.9013 5.54831C36.5424 4.38702 37.1836 3.35476 37.6965 2.58057" fill="white"/>
<path d="M34.2344 9.80637C34.6191 8.51605 35.132 7.0967 35.9013 5.54831C36.5424 4.38702 37.1836 3.35476 37.6965 2.58057" stroke="#282828" stroke-width="0.6782" stroke-linejoin="round"/>
<path d="M124.763 9.80637C124.378 8.51605 123.865 7.0967 123.096 5.54831C122.455 4.38702 121.814 3.35476 121.301 2.58057" fill="white"/>
<path d="M124.763 9.80637C124.378 8.51605 123.865 7.0967 123.096 5.54831C122.455 4.38702 121.814 3.35476 121.301 2.58057" stroke="#282828" stroke-width="0.6782" stroke-linejoin="round"/>
<path d="M17.8211 44.1292C15.1284 49.5485 12.5638 54.8388 9.87109 60.2582" stroke="#282828" stroke-width="0.6782" stroke-linejoin="round"/>
<path d="M141.176 44.1292C143.869 49.5485 146.561 54.9679 149.254 60.3872" stroke="#282828" stroke-width="0.6782" stroke-linejoin="round"/>
<path d="M89.4986 8.64514H69.3672V10.9677H89.4986V8.64514Z" fill="#DBDBDB" stroke="#282828" stroke-width="0.6782" stroke-linejoin="round"/>
<path d="M110.915 88.5161H105.657C103.734 88.5161 102.195 90.0645 102.195 92V92.6452C102.195 94.5806 103.734 96.129 105.657 96.129H110.915C112.838 96.129 114.377 94.5806 114.377 92.6452V92C114.377 90.0645 112.838 88.5161 110.915 88.5161Z" fill="#A5A4A4" stroke="#282828" stroke-width="0.6782" stroke-linejoin="round"/>
<path d="M110.4 92.2581C110.4 91.0968 109.503 90.1936 108.348 90.1936C107.194 90.1936 106.297 91.0968 106.297 92.2581C106.297 93.4194 107.194 94.3226 108.348 94.3226C109.503 94.3226 110.4 93.4194 110.4 92.2581Z" fill="#636060" stroke="#282828" stroke-width="0.6782" stroke-linejoin="round"/>
<path d="M52.8287 88.5161H47.5715C45.6481 88.5161 44.1094 90.0645 44.1094 92V92.6452C44.1094 94.5806 45.6481 96.129 47.5715 96.129H52.8287C54.7521 96.129 56.2908 94.5806 56.2908 92.6452V92C56.2908 90.0645 54.7521 88.5161 52.8287 88.5161Z" fill="#A5A4A4" stroke="#282828" stroke-width="0.6782" stroke-linejoin="round"/>
<path d="M52.3142 92.2581C52.3142 91.0968 51.4166 90.1936 50.2626 90.1936C49.1085 90.1936 48.2109 91.0968 48.2109 92.2581C48.2109 93.4194 49.1085 94.3226 50.2626 94.3226C51.4166 94.3226 52.3142 93.4194 52.3142 92.2581Z" fill="#636060" stroke="#282828" stroke-width="0.6782" stroke-linejoin="round"/>
</g>
<defs>
<clipPath id="clip0_2157_32559">
<rect width="159" height="112" fill="white"/>
</clipPath>
</defs>
</svg>
