<svg width="354" height="112" viewBox="0 0 354 112" fill="none" xmlns="http://www.w3.org/2000/svg">
<g opacity="0.5" clip-path="url(#clip0_2157_32459)">
<path d="M13.8672 93.141L44.1697 99.0425L297.889 98.7859L312.27 89.2922C312.013 69.6633 295.963 54.0116 277.216 53.8833C257.571 53.755 240.751 70.6897 241.65 91.3449C195.169 91.4732 148.559 91.4732 102.078 91.6015C103.105 70.6897 87.0554 53.2418 68.0522 52.0872C47.5081 50.8042 28.5048 68.7653 29.2752 91.3449C24.1392 91.9864 19.0032 92.4995 13.8672 93.141Z" fill="#79797A" stroke="#282828" stroke-width="0.6782" stroke-linejoin="round"/>
<path d="M352.458 70.433L351.046 68.3803L351.174 59.2715C351.174 58.2452 350.917 57.2188 350.404 56.4491L344.882 48.2383L320.871 45.6724L314.451 40.5407L345.268 35.2807C346.038 33.8695 346.68 32.4582 347.45 31.1753C341.544 30.0207 335.509 28.866 329.603 27.7114C328.447 27.8397 326.008 28.0963 326.008 28.0963C316.763 25.6587 307.261 23.0928 297.631 20.2704C286.845 17.1913 276.317 13.984 266.173 10.7767L267.072 7.56935C247.683 3.33567 222.774 4.80413e-05 193.883 0.898101C176.293 1.41127 160.628 3.46397 147.017 6.15812C147.659 7.05618 148.301 7.82594 148.943 8.72399C140.212 11.5464 130.197 15.2669 119.668 20.3987C112.863 23.8626 106.571 27.3265 101.05 30.7904C98.3536 32.4582 95.4004 33.4846 92.1903 33.8695C90.2643 34.126 88.3383 34.3826 86.5407 34.2543L84.3579 33.228L81.9183 32.0734C68.9499 32.4582 51.6158 33.4846 31.9705 40.4124C20.0293 44.5178 10.1425 49.5212 2.05324 54.2681C1.53963 56.3208 1.15443 58.6301 0.897632 61.3242C0.512431 64.4033 2.31004 83.9038 2.56684 85.9565C2.69524 86.598 2.69524 87.2395 2.82364 87.7526C3.20884 90.0619 5.00645 91.858 7.31765 92.2429C9.50046 92.4995 11.5549 92.7561 13.7377 93.1409C21.0565 94.039 35.0521 95.0653 35.0521 95.0653C32.7409 79.7984 39.6746 65.3013 51.8726 59.0149C52.643 58.6301 65.2262 52.472 78.1947 58.3735C91.0347 64.275 98.7388 79.5419 96.1708 95.9634C194.397 96.22 248.582 96.3483 248.582 96.3483C248.582 96.3483 245.115 70.433 263.862 60.811C277.087 53.8832 293.907 59.0149 301.098 68.1238C308.16 76.976 309.315 93.9107 309.315 94.039C311.627 93.9107 324.467 93.5258 334.097 92.2429C335.894 91.9863 338.719 91.6014 341.929 90.0619C345.011 88.5224 347.194 86.598 348.221 85.5716C350.275 83.5189 351.688 81.4663 352.458 79.7984C352.843 79.0287 353.1 78.2589 353.1 77.3609V72.7423C353.228 71.9726 352.972 71.0745 352.458 70.433Z" fill="#F8F8F8" stroke="#282828" stroke-width="1.2" stroke-linejoin="round"/>
<path d="M102.078 36.5638L270.026 30.9189C273.236 30.7906 276.189 29.6359 278.629 27.4549L281.582 24.8891C282.866 23.7344 282.481 21.5534 280.812 21.0403C271.438 17.8329 258.47 14.1124 242.805 11.29C221.619 7.44119 190.931 1.92458 154.979 11.5466C142.524 14.7539 123.136 21.5534 102.078 36.5638Z" stroke="#282828" stroke-width="0.6782" stroke-linejoin="round"/>
<path d="M7.18965 72.3574C8.08845 71.2028 8.34525 69.6632 8.21685 68.1237C7.70325 65.173 6.67604 61.4525 4.62164 57.732C3.72283 56.1925 2.82403 55.0378 2.05363 54.0115C1.54003 58.3734 1.28323 63.6335 1.41163 69.4067C1.54003 71.9725 1.66843 74.4101 2.05363 76.8477C2.95243 76.3345 4.23644 75.5647 5.64884 74.1535C6.16244 73.6403 6.67604 72.9989 7.18965 72.3574Z" fill="#A5A4A4" stroke="#282828" stroke-width="0.6782" stroke-linejoin="round"/>
<path d="M10.0125 78.1305L20.6697 75.5647C22.4673 75.1798 24.1365 76.2061 24.6501 77.874L25.4205 80.5681C26.0625 82.6208 24.6501 84.8018 22.4673 85.0584L11.2965 85.9564C9.75565 86.0847 8.34325 85.1867 7.82965 83.6472C7.82965 83.3906 7.70125 83.0057 7.57284 82.6208C6.93084 80.6964 8.08645 78.6437 10.0125 78.1305Z" fill="#A5A4A4" stroke="#282828" stroke-width="0.6782" stroke-linejoin="round"/>
<path d="M22.8522 80.3116C22.8522 78.3872 22.2102 76.8477 21.4397 76.8477C20.6693 76.8477 20.0273 78.3872 20.0273 80.3116C20.0273 82.236 20.6693 83.7755 21.4397 83.7755C22.2102 83.6472 22.8522 82.1077 22.8522 80.3116Z" fill="white" stroke="#282828" stroke-width="0.6782" stroke-linejoin="round"/>
<path d="M92.1884 33.8695C95.27 33.4847 98.3516 32.4583 101.048 30.7905C106.569 27.3266 112.861 23.8627 119.794 20.3988C130.323 15.267 140.339 11.4182 149.07 8.72407C148.428 7.82602 147.786 7.05626 147.144 6.1582C137.771 9.36553 127.884 13.086 117.483 17.448C105.414 22.5797 94.3712 27.9681 84.4844 33.2281L86.6672 34.2544C88.3364 34.3827 90.2624 34.1261 92.1884 33.8695Z" fill="#A5A4A4" stroke="#282828" stroke-width="0.6782" stroke-linejoin="round"/>
<path d="M189.642 8.46747C177.83 8.98064 166.659 10.6485 155.488 13.5992C139.566 17.8329 124.158 24.6324 109.777 33.9978L182.324 31.5603C184.25 25.2739 187.716 14.4973 189.642 8.46747Z" fill="#A5A4A4" stroke="#282828" stroke-width="0.6782" stroke-linejoin="round"/>
<path d="M242.804 13.4708C242.675 13.4708 242.418 13.4708 242.29 13.3425C230.862 11.2899 216.867 8.72399 200.688 8.33911L198.891 30.9187L253.076 29.1226L242.804 13.4708Z" fill="#A5A4A4" stroke="#282828" stroke-width="0.6782" stroke-linejoin="round"/>
<path d="M249.863 14.8821L260.521 28.9943L269.894 28.7378C272.462 28.6095 275.03 27.5831 276.956 25.9153L279.909 23.2211C270.151 19.7572 260.007 17.0631 249.863 14.8821Z" fill="#A5A4A4" stroke="#282828" stroke-width="0.6782" stroke-linejoin="round"/>
<path d="M297.759 20.3988C307.389 23.2212 316.891 25.7871 326.135 28.2247C326.135 28.2247 328.575 27.9681 329.731 27.8398C319.33 23.8627 308.416 20.0139 296.732 16.2934C286.588 13.0861 276.701 10.1353 267.2 7.69775L266.301 10.9051C276.444 14.1124 286.973 17.3197 297.759 20.3988Z" fill="#A5A4A4" stroke="#282828" stroke-width="0.6782" stroke-linejoin="round"/>
<path d="M31.7148 45.1594C42.6289 41.8237 51.8737 40.1559 58.5505 39.1296C67.4102 37.8467 74.8574 37.4618 84.1022 37.0769C91.5494 36.692 97.7127 36.5637 102.078 36.5637" stroke="#282828" stroke-width="0.6782" stroke-linejoin="round"/>
<path d="M28.1172 53.6267C33.2532 57.7321 38.2608 61.7092 43.3968 65.8146" stroke="#282828" stroke-width="0.6782" stroke-linejoin="round"/>
<path d="M179.117 42.3368C179.117 41.567 175.522 41.0538 171.156 41.1821C166.791 41.3104 163.195 41.9519 163.195 42.7216C163.195 43.4914 166.791 44.0046 171.156 43.8763C175.65 43.748 179.117 43.1065 179.117 42.3368Z" stroke="#282828" stroke-width="0.6782" stroke-linejoin="round"/>
<path d="M261.551 41.0539C261.551 40.2841 257.955 39.7709 253.59 39.8992C249.224 40.0275 245.629 40.669 245.629 41.4387C245.629 42.2085 249.224 42.7217 253.59 42.5934C257.955 42.4651 261.551 41.6953 261.551 41.0539Z" stroke="#282828" stroke-width="0.6782" stroke-linejoin="round"/>
<path d="M195.169 6.1582L189.647 33.613C188.62 37.2052 187.721 41.054 186.823 45.1594C183.484 61.8375 183.741 76.9761 185.025 89.2922" stroke="#282828" stroke-width="0.6782" stroke-linejoin="round"/>
<path d="M107.855 36.5637C106.443 40.6691 105.03 45.2876 104.131 50.5477C101.307 66.456 103.618 80.1834 105.929 89.2922C149.842 89.2922 193.755 89.2922 237.539 89.2922C246.656 76.3346 253.975 65.9429 260.908 56.7057C263.861 52.6004 268.484 46.5706 267.071 39.6427C266.301 35.7939 263.861 32.9715 262.064 31.1754C257.313 24.889 252.434 18.6027 247.683 12.188" stroke="#282828" stroke-width="0.6782" stroke-linejoin="round"/>
<path d="M31.9721 45.1593C31.8437 45.1593 31.8437 45.1593 31.7153 45.1593C27.9917 46.0574 23.3693 47.3403 18.4901 49.5213C13.996 51.574 10.144 53.7549 7.06241 55.8076C6.42041 56.1925 6.80561 57.0906 7.57602 57.0906C10.6576 56.834 13.7392 56.3208 17.0777 55.8076C27.8633 54.0115 37.4933 51.1891 45.5826 48.11C46.2246 47.8535 46.0962 46.8271 45.4542 46.8271C40.9601 46.1856 36.4661 45.6725 31.9721 45.1593Z" fill="#A5A4A4"/>
<path d="M321.002 45.8007L345.013 48.3666C345.398 46.4422 345.783 44.0046 345.783 41.3105C345.783 39.1295 345.655 37.2051 345.398 35.5373L314.582 40.7973L321.002 45.8007Z" fill="#A5A4A4"/>
<path d="M31.9721 45.1593C31.8437 45.1593 31.8437 45.1593 31.7153 45.1593C27.9917 46.0574 23.3693 47.3403 18.4901 49.5213C13.996 51.574 10.144 53.7549 7.06241 55.8076C6.42041 56.1925 6.80561 57.0906 7.57602 57.0906C10.6576 56.834 13.7392 56.3208 17.0777 55.8076C27.8633 54.0115 37.4933 51.1891 45.5826 48.11C46.2246 47.8535 46.0962 46.8271 45.4542 46.8271C40.9601 46.1856 36.4661 45.6725 31.9721 45.1593Z" fill="white" stroke="#282828" stroke-width="0.6782" stroke-linejoin="round"/>
<path d="M321.002 45.8007L345.013 48.3666C345.398 46.4422 345.783 44.0046 345.783 41.3105C345.783 39.1295 345.655 37.2051 345.398 35.5373L314.582 40.7973L321.002 45.8007Z" fill="#A5A4A4" stroke="#282828" stroke-width="0.6782" stroke-linejoin="round"/>
<path d="M31.9721 45.1593C31.8437 45.1593 31.8437 45.1593 31.7153 45.1593C27.9917 46.0574 23.3693 47.3403 18.4901 49.5213C13.996 51.574 10.144 53.7549 7.06241 55.8076C6.42041 56.1925 6.80561 57.0906 7.57602 57.0906C10.6576 56.834 13.7392 56.3208 17.0776 55.8076C27.8633 54.0115 37.4933 51.1891 45.5825 48.11C46.2246 47.8535 46.0962 46.8271 45.4541 46.8271C40.9601 46.1856 36.4661 45.6725 31.9721 45.1593Z" stroke="#303030" stroke-width="0.6782" stroke-linejoin="round"/>
<path d="M321.002 45.8007L345.013 48.3666C345.398 46.4422 345.783 44.0046 345.783 41.3105C345.783 39.1295 345.655 37.2051 345.398 35.5373L314.582 40.7973L321.002 45.8007Z" stroke="#303030" stroke-width="0.6782" stroke-linejoin="round"/>
<path d="M278.372 111.23C292.484 111.23 303.924 100.087 303.924 86.3415C303.924 72.5958 292.484 61.4526 278.372 61.4526C264.26 61.4526 252.82 72.5958 252.82 86.3415C252.82 100.087 264.26 111.23 278.372 111.23Z" fill="#A5A4A4" stroke="#282828" stroke-width="1.2" stroke-linejoin="round"/>
<path d="M278.373 105.201C289.081 105.201 297.761 96.7571 297.761 86.3415C297.761 75.9259 289.081 67.4824 278.373 67.4824C267.665 67.4824 258.984 75.9259 258.984 86.3415C258.984 96.7571 267.665 105.201 278.373 105.201Z" fill="white" stroke="#282828" stroke-width="0.6782" stroke-linejoin="round"/>
<path d="M280.425 86.2132C280.425 87.2396 279.526 88.1376 278.371 88.1376C277.215 88.1376 276.316 87.2396 276.316 86.2132C276.316 85.1869 277.215 84.2888 278.371 84.2888C279.398 84.1605 280.425 85.0586 280.425 86.2132Z" stroke="#282828" stroke-width="0.6782" stroke-linecap="round" stroke-linejoin="round"/>
<path d="M278.371 103.405C279.013 103.405 279.784 103.405 280.554 103.276C280.811 103.276 281.068 103.148 281.324 103.148C281.581 103.02 281.966 102.891 282.095 102.635L283.122 101.352C283.507 100.839 283.507 100.069 283.122 99.5557L279.398 94.9372C278.885 94.1674 277.729 94.1674 277.216 94.9372L273.492 99.5557C273.107 100.069 273.107 100.839 273.492 101.352L274.519 102.635C274.776 102.891 275.033 103.02 275.29 103.148C275.546 103.148 275.803 103.276 276.06 103.276C276.959 103.405 277.729 103.405 278.371 103.405Z" fill="#DBDBDB" stroke="#282828" stroke-width="0.6782" stroke-linejoin="round"/>
<path d="M294.549 91.6015C294.806 90.9601 294.934 90.3186 295.063 89.5488C295.063 89.2922 295.191 89.0357 295.191 88.7791C295.191 88.3942 295.191 88.1376 294.934 87.881L294.036 86.4698C293.65 85.9566 293.008 85.7 292.366 85.9566L286.845 88.0093C285.946 88.3942 285.69 89.4205 286.203 90.062L289.542 95.0654C289.927 95.5786 290.569 95.8352 291.211 95.5786L292.752 94.9371C293.008 94.8088 293.265 94.5523 293.522 94.2957C293.65 94.0391 293.779 93.7825 293.907 93.5259C294.164 92.8845 294.421 92.1147 294.549 91.6015Z" fill="#DBDBDB" stroke="#282828" stroke-width="0.6782" stroke-linejoin="round"/>
<path d="M288.644 72.6141C288.13 72.2292 287.616 71.8443 286.846 71.4595C286.589 71.3312 286.332 71.2029 286.076 71.0746C285.819 70.9463 285.434 70.9463 285.177 70.9463L283.508 71.3312C282.866 71.4595 282.48 72.1009 282.48 72.7424L282.609 78.6439C282.609 79.5419 283.508 80.1834 284.406 79.9268L290.185 78.3873C290.827 78.259 291.212 77.6175 291.212 76.9761V75.3083C291.212 74.9234 291.083 74.6668 290.827 74.4102C290.698 74.1536 290.441 74.0253 290.313 73.7687C289.799 73.5122 289.157 72.999 288.644 72.6141Z" fill="#DBDBDB" stroke="#282828" stroke-width="0.6782" stroke-linejoin="round"/>
<path d="M268.099 72.7424C267.586 73.1273 267.072 73.5122 266.43 74.1537C266.173 74.4103 266.045 74.5385 265.916 74.7951C265.66 75.0517 265.531 75.3083 265.531 75.6932V77.361C265.531 78.0025 265.916 78.6439 266.558 78.7722L272.336 80.3117C273.235 80.5683 274.134 79.9269 274.134 79.0288L274.263 73.1273C274.263 72.4859 273.877 71.8444 273.235 71.7161L271.566 71.3312C271.309 71.2029 270.924 71.3312 270.667 71.4595C270.41 71.5878 270.154 71.7161 269.897 71.8444C269.126 71.8444 268.613 72.3576 268.099 72.7424Z" fill="#DBDBDB" stroke="#282828" stroke-width="0.6782" stroke-linejoin="round"/>
<path d="M262.065 91.6016C262.193 92.2431 262.45 92.8846 262.835 93.6543C262.964 93.9109 263.092 94.1675 263.22 94.4241C263.349 94.6807 263.606 94.9373 263.991 95.0656L265.66 95.707C266.302 95.9636 266.944 95.707 267.329 95.1939L270.668 90.1904C271.181 89.4207 270.796 88.3943 270.026 88.1377L264.504 86.085C263.862 85.8284 263.22 86.085 262.835 86.5982L261.936 88.0094C261.808 88.266 261.68 88.6509 261.68 88.9075C261.68 89.1641 261.68 89.4207 261.808 89.6772C261.551 90.3187 261.808 90.9602 262.065 91.6016Z" fill="#DBDBDB" stroke="#282828" stroke-width="0.6782" stroke-linejoin="round"/>
<path d="M66.1259 111.23C80.2377 111.23 91.6776 100.087 91.6776 86.3415C91.6776 72.5958 80.2377 61.4526 66.1259 61.4526C52.0141 61.4526 40.5742 72.5958 40.5742 86.3415C40.5742 100.087 52.0141 111.23 66.1259 111.23Z" fill="#A5A4A4" stroke="#282828" stroke-width="1.2" stroke-linejoin="round"/>
<path d="M66.1267 105.201C76.8347 105.201 85.5152 96.7571 85.5152 86.3415C85.5152 75.9259 76.8347 67.4824 66.1267 67.4824C55.4188 67.4824 46.7383 75.9259 46.7383 86.3415C46.7383 96.7571 55.4188 105.201 66.1267 105.201Z" fill="white" stroke="#282828" stroke-width="0.6782" stroke-linejoin="round"/>
<path d="M68.1791 86.2132C68.1791 87.2396 67.2803 88.1376 66.1247 88.1376C64.9691 88.1376 64.0703 87.2396 64.0703 86.2132C64.0703 85.1869 64.9691 84.2888 66.1247 84.2888C67.2803 84.1605 68.1791 85.0586 68.1791 86.2132Z" stroke="#282828" stroke-width="0.6782" stroke-linecap="round" stroke-linejoin="round"/>
<path d="M66.1251 103.405C66.7671 103.405 67.5375 103.405 68.308 103.276C68.5648 103.276 68.8216 103.148 69.0784 103.148C69.3352 103.02 69.7204 102.891 69.8488 102.635L70.876 101.352C71.2612 100.839 71.2612 100.069 70.876 99.5557L67.1523 94.9372C66.6387 94.1674 65.4831 94.1674 64.9695 94.9372L61.2459 99.5557C60.8607 100.069 60.8607 100.839 61.2459 101.352L62.2731 102.635C62.5299 102.891 62.7867 103.02 63.0435 103.148C63.3003 103.148 63.5571 103.276 63.8139 103.276C64.8411 103.405 65.4831 103.405 66.1251 103.405Z" fill="#DBDBDB" stroke="#282828" stroke-width="0.6782" stroke-linejoin="round"/>
<path d="M82.432 91.6015C82.6888 90.9601 82.8172 90.3186 82.9456 89.5488C82.9456 89.2922 83.074 89.0357 83.074 88.7791C83.074 88.3942 83.074 88.1376 82.8172 87.881L81.9184 86.4698C81.5332 85.9566 80.8912 85.7 80.2492 85.9566L74.728 88.0093C73.8292 88.3942 73.5724 89.4205 74.086 90.062L77.4244 95.0654C77.8096 95.5786 78.4516 95.8352 79.0936 95.5786L80.6344 94.9371C80.8912 94.8088 81.148 94.5523 81.4048 94.2957C81.5332 94.0391 81.6616 93.7825 81.79 93.5259C82.0468 92.8845 82.3036 92.1147 82.432 91.6015Z" fill="#DBDBDB" stroke="#282828" stroke-width="0.6782" stroke-linejoin="round"/>
<path d="M76.5265 72.6141C76.0129 72.2292 75.4993 71.8443 74.7289 71.4595C74.4721 71.3312 74.2153 71.2029 73.9585 71.0746C73.7017 70.9463 73.3165 70.9463 73.0597 70.9463L71.3905 71.3312C70.7485 71.4595 70.3633 72.1009 70.3633 72.7424L70.4917 78.6439C70.4917 79.5419 71.3905 80.1834 72.2893 79.9268L78.0673 78.3873C78.7093 78.259 79.0945 77.6175 79.0945 76.9761V75.3083C79.0945 74.9234 78.9661 74.6668 78.7093 74.4102C78.5809 74.1536 78.3241 74.0253 78.1957 73.7687C77.5537 73.5122 77.0401 72.999 76.5265 72.6141Z" fill="#DBDBDB" stroke="#282828" stroke-width="0.6782" stroke-linejoin="round"/>
<path d="M55.8532 72.7424C55.3396 73.1273 54.826 73.5122 54.184 74.1537C53.9272 74.4103 53.7988 74.5385 53.6704 74.7951C53.4136 75.0517 53.2852 75.3083 53.2852 75.6932V77.361C53.2852 78.0025 53.6704 78.6439 54.3124 78.7722L60.0904 80.3117C60.9892 80.5683 61.888 79.9269 61.888 79.0288L62.0164 73.1273C62.0164 72.4859 61.6312 71.8444 60.9892 71.7161L59.32 71.3312C59.0632 71.2029 58.678 71.3312 58.4212 71.4595C58.1644 71.5878 57.9076 71.7161 57.6508 71.8444C57.0088 71.8444 56.3668 72.3576 55.8532 72.7424Z" fill="#DBDBDB" stroke="#282828" stroke-width="0.6782" stroke-linejoin="round"/>
<path d="M49.8188 91.6016C49.9472 92.2431 50.204 92.8846 50.5892 93.6543C50.7176 93.9109 50.846 94.1675 50.9744 94.4241C51.1028 94.6807 51.3596 94.9373 51.7448 95.0656L53.414 95.707C54.056 95.9636 54.698 95.707 55.0832 95.1939L58.4216 90.1904C58.9352 89.4207 58.55 88.3943 57.7796 88.1377L52.2584 86.085C51.6164 85.8284 50.9744 86.085 50.5892 86.5982L49.6904 88.0094C49.562 88.266 49.4336 88.6509 49.4336 88.9075C49.4336 89.1641 49.4336 89.4207 49.562 89.6772C49.4336 90.3187 49.562 90.9602 49.8188 91.6016Z" fill="#DBDBDB" stroke="#282828" stroke-width="0.6782" stroke-linejoin="round"/>
<path d="M295.191 62.8637L304.821 60.811C309.444 59.7847 313.553 56.9622 316.121 53.1134L320.871 45.929C323.696 48.6232 328.576 52.6003 335.381 55.551C341.672 58.2452 347.322 59.1432 351.174 59.5281" stroke="#282828" stroke-width="0.6782" stroke-linejoin="round"/>
<path d="M45.9648 47.3402C92.4458 43.748 141.495 41.1821 192.727 40.1557C234.842 39.2577 275.545 39.5143 314.45 40.6689" stroke="#282828" stroke-width="0.6782" stroke-linejoin="round"/>
<path d="M308.031 84.6737C314.58 84.5454 320.101 84.1605 324.723 83.9039C334.353 83.2625 337.05 82.7493 339.746 81.2098C341.801 80.0551 341.929 79.4137 346.038 76.4629C348.991 74.2819 351.559 72.7424 353.357 71.7161" stroke="#282828" stroke-width="0.6782" stroke-linejoin="round"/>
<path d="M10.6545 53.6268C10.3977 52.7287 8.21484 50.676 8.21484 50.676" stroke="#282828" stroke-width="0.6782" stroke-linejoin="round"/>
<path d="M120.566 33.8694L124.547 36.5636C122.878 37.8465 121.208 39.2578 119.539 40.5407C119.411 40.5407 118.255 40.7973 117.356 39.8992C116.586 39.2578 116.586 38.2314 116.586 38.1031L120.566 33.8694Z" fill="#DBDBDB" stroke="#282828" stroke-width="0.6782" stroke-linejoin="round"/>
<path d="M130.711 28.0963C129.684 27.968 128.4 27.968 127.244 27.968C124.291 28.0962 121.081 28.0963 119.925 30.0206C119.026 31.4319 119.668 33.3563 120.567 34.3826C122.365 36.5636 126.088 37.2051 128.785 36.307C129.298 33.4846 129.94 30.7904 130.711 28.0963Z" fill="#A5A4A4" stroke="#282828" stroke-width="0.6782" stroke-linejoin="round"/>
</g>
<defs>
<clipPath id="clip0_2157_32459">
<rect width="354" height="112" fill="white"/>
</clipPath>
</defs>
</svg>
