<svg width="155" height="112" viewBox="0 0 155 112" fill="none" xmlns="http://www.w3.org/2000/svg">
<g opacity="0.5" clip-path="url(#clip0_2157_32518)">
<path d="M131.849 86.0552H23.1562V96.202H131.849V86.0552Z" fill="#79797A" stroke="#282828" stroke-width="0.6782" stroke-linejoin="round"/>
<path d="M110.111 87.5964H45.0234V97.7432H110.111V87.5964Z" fill="#79797A" stroke="#282828" stroke-width="0.6782" stroke-linejoin="round"/>
<path d="M8.49219 62.9358V63.8349V106.991C8.49219 109.431 10.4216 111.358 12.8656 111.358H23.542C25.986 111.358 27.9154 109.431 27.9154 106.991V91.578L8.49219 62.9358Z" fill="#A5A4A4" stroke="#282828" stroke-width="1.2" stroke-linejoin="round"/>
<path d="M146.513 62.9358V63.8349V106.991C146.513 109.431 144.584 111.358 142.14 111.358H131.463C129.019 111.358 127.09 109.431 127.09 106.991V91.578L146.513 62.9358Z" fill="#A5A4A4" stroke="#282828" stroke-width="1.2" stroke-linejoin="round"/>
<path d="M77.5641 91.4496H140.207C142.008 91.4496 143.552 90.1652 143.809 88.4955C144.709 83.6148 145.224 79.6331 145.61 76.679C146.124 71.7983 145.996 69.2294 146.639 62.9359C147.025 58.1836 147.668 54.2019 147.925 51.7616C147.411 50.3487 146.639 48.679 145.738 47.1377C145.095 45.9817 144.452 44.9542 143.809 44.0551C143.423 42.7707 142.909 40.9726 141.622 39.046C140.593 37.5047 139.564 36.3487 138.664 35.5781C137.12 30.0551 134.676 23.2478 130.56 15.9267C128.759 12.7157 126.83 9.89 125.029 7.32119C122.971 4.4955 119.884 2.82578 116.539 2.44045C114.353 2.18357 112.037 2.05513 109.85 1.92669C98.6596 1.15605 87.8546 0.89917 77.6928 0.89917C67.5309 0.89917 56.5973 1.02761 45.2778 1.79825C42.9625 1.92669 40.7757 2.18357 38.589 2.31201C35.2446 2.56889 32.0289 4.36706 30.0994 7.19275C28.2986 9.76156 26.3691 12.5872 24.5683 15.7983C20.4521 23.1194 18.0081 29.9267 16.4645 35.4496C15.5641 36.2203 14.5351 37.3762 13.506 38.9175C12.2197 40.8441 11.7052 42.6423 11.3193 43.9267C10.6762 44.8258 10.033 45.8533 9.38985 47.0093C8.48943 48.679 7.71765 50.2203 7.20312 51.6331C7.58902 54.2019 8.10354 58.0551 8.48943 62.8074C9.13259 69.101 9.00396 71.7982 9.51848 76.5505C9.77574 79.6331 10.2903 83.6148 11.3193 88.4955C11.7052 90.2937 13.2488 91.4496 14.921 91.4496H77.5641Z" fill="#F8F8F8" stroke="#282828" stroke-width="1.2" stroke-linejoin="round"/>
<path d="M32.9294 82.5873L32.8008 82.7157C32.2862 83.7433 31.2572 84.257 30.0995 84.3855L16.336 84.8992C14.0207 85.0277 12.3485 82.7157 13.1203 80.5323L14.1493 77.4497C14.6638 75.9084 16.336 75.0093 17.8796 75.2662L30.7427 77.7066C32.9294 78.0919 34.0871 80.5323 32.9294 82.5873Z" fill="#A5A4A4" stroke="#282828" stroke-width="0.6782" stroke-linejoin="round"/>
<path d="M77.5653 71.5413C86.5695 71.6698 97.2458 71.0276 108.823 68.4588C110.366 68.0734 111.91 67.6881 113.453 67.3028C115.383 66.789 116.155 64.734 114.997 63.3211C114.096 62.1652 112.939 61.0092 111.652 59.8533C111.652 59.8533 111.652 59.8533 111.524 59.7248C107.536 56.2569 102.134 54.2019 96.474 54.0734C96.0881 54.0734 95.7022 54.0734 95.1877 54.0734C89.1421 53.945 83.2251 54.0734 77.5653 54.0734C71.9056 54.0734 65.9885 53.945 59.9429 54.0734C59.557 54.0734 59.0425 54.0734 58.6566 54.0734C52.9968 54.2019 47.5944 56.2569 43.6068 59.7248C43.6068 59.7248 43.6068 59.7248 43.4782 59.8533C42.1919 61.0092 41.0342 62.1652 40.1338 63.3211C38.9761 64.734 39.7479 66.789 41.6773 67.3028C43.2209 67.6881 44.6358 68.0734 46.308 68.4588C57.8848 71.156 68.5612 71.7982 77.5653 71.5413Z" fill="#A5A4A4" stroke="#282828" stroke-width="0.6782" stroke-linejoin="round"/>
<path d="M77.5636 85.1561C88.3685 85.1561 99.0449 84.8992 109.85 84.3854C111.008 84.3854 111.779 83.101 111.136 82.0735C110.622 81.3029 110.236 80.5322 109.721 79.7616C109.464 79.3763 108.949 79.1194 108.435 79.1194C98.1445 79.6331 87.854 79.7616 77.5636 79.7616C67.2731 79.7616 56.9827 79.5047 46.6922 79.1194C46.1777 79.1194 45.6632 79.3763 45.4059 79.7616C44.8914 80.5322 44.5055 81.3029 43.991 82.0735C43.3478 82.9726 44.1196 84.3854 45.2773 84.3854C55.9536 84.8992 66.7586 85.1561 77.5636 85.1561Z" fill="#A5A4A4" stroke="#282828" stroke-width="0.6782" stroke-linejoin="round"/>
<path d="M77.5636 85.1561C88.3685 85.1561 99.0449 84.8992 109.85 84.3854C111.008 84.3854 111.779 83.101 111.136 82.0735C110.622 81.3029 110.236 80.5322 109.721 79.7616C109.464 79.3763 108.949 79.1194 108.435 79.1194C98.1445 79.6331 87.854 79.7616 77.5636 79.7616C67.2731 79.7616 56.9827 79.5047 46.6922 79.1194C46.1777 79.1194 45.6632 79.3763 45.4059 79.7616C44.8914 80.5322 44.5055 81.3029 43.991 82.0735C43.3478 82.9726 44.1196 84.3854 45.2773 84.3854C55.9536 84.8992 66.7586 85.1561 77.5636 85.1561Z" stroke="#282828" stroke-width="0.6782" stroke-linejoin="round"/>
<path d="M122.07 82.5873L122.199 82.7157C122.713 83.7433 123.742 84.257 124.9 84.3855L138.663 84.8992C140.979 85.0277 142.651 82.7157 141.879 80.5323L140.85 77.4497C140.336 75.9084 138.663 75.0093 137.12 75.2662L124.257 77.7066C122.07 78.0919 120.912 80.5323 122.07 82.5873Z" fill="#A5A4A4" stroke="#282828" stroke-width="0.6782" stroke-linejoin="round"/>
<path d="M13.7647 49.7065L7.84766 56.7708" stroke="#282828" stroke-width="0.6782" stroke-linejoin="round"/>
<path d="M12.8639 45.8533L11.3203 43.9267" stroke="#282828" stroke-width="0.6782" stroke-linejoin="round"/>
<path d="M16.4648 35.4497C16.5935 36.991 16.9794 39.046 18.3943 41.2295C19.8092 43.413 21.4814 44.6974 22.7678 45.5965C23.7968 46.3671 24.6972 46.8809 25.3404 47.1378" stroke="#282828" stroke-width="0.6782" stroke-linejoin="round"/>
<path d="M17.8828 30.0552C18.3973 30.6974 19.2978 31.7249 20.5841 33.0093C25.6007 38.0185 29.8455 39.1744 34.3475 42.257C36.6629 43.7983 40.0073 46.4955 43.2231 50.991" stroke="#282828" stroke-width="0.6782" stroke-linejoin="round"/>
<path d="M20.4531 33.0092C20.9676 29.7982 21.6108 26.2019 23.0257 22.2202C24.9552 16.312 27.3992 11.4312 29.7145 7.8349" stroke="#282828" stroke-width="0.6782" stroke-linejoin="round"/>
<path d="M77.567 29.6698C88.1148 29.7983 98.7911 29.9267 109.725 30.312C117.185 30.5689 124.646 30.8258 131.849 31.2111C130.692 26.8441 129.148 22.0919 126.961 16.8258C125.804 14.0001 124.517 11.4313 123.231 9.11937C122.588 7.83497 121.173 7.06433 119.758 6.93589C114.87 6.80745 109.853 6.67901 104.837 6.55057C95.5753 6.42213 86.4426 6.0368 77.567 6.0368C68.6915 6.0368 59.4301 6.42213 50.1687 6.67901C45.0235 6.67901 40.1355 6.80745 35.2475 7.06433C33.704 7.06433 32.4177 7.96341 31.7745 9.24781C30.4882 11.5597 29.3305 14.1285 28.0442 16.9542C25.8575 22.0919 24.3139 26.9726 23.1562 31.3396C30.4882 30.9542 37.8202 30.6974 45.2807 30.4405C56.2143 30.0552 67.0193 29.7983 77.567 29.6698Z" fill="#A5A4A4" stroke="#282828" stroke-width="0.6782" stroke-linejoin="round"/>
<path d="M14.0199 45.4679C17.4929 45.9817 23.4099 46.8808 24.6962 47.1376C24.8249 47.1376 25.0821 47.2661 25.2108 47.2661L39.3601 54.3303C40.6465 54.9725 40.5178 56.5138 39.1029 57.0276L36.4016 57.7982H36.273C34.7294 58.0551 24.8249 59.5964 17.3643 53.5597C14.9203 51.5046 13.3767 49.1927 12.4763 47.3945C11.9618 46.367 12.8622 45.211 14.0199 45.4679Z" fill="white" stroke="#282828" stroke-width="0.6782" stroke-linejoin="round"/>
<path d="M140.98 45.4678C137.507 45.9816 131.59 46.8807 130.303 47.1375C130.175 47.1375 129.918 47.266 129.789 47.266L115.64 54.3302C114.353 54.9724 114.482 56.5137 115.897 57.0274L118.727 57.9265H118.855C120.399 58.1834 130.303 59.7247 137.764 53.688C140.208 51.6329 141.752 49.321 142.652 47.5229C143.166 46.3669 142.266 45.2109 140.98 45.4678Z" fill="white" stroke="#282828" stroke-width="0.6782" stroke-linejoin="round"/>
<path d="M119.757 52.2753C114.997 51.6331 110.109 51.1193 104.964 50.734C95.1883 49.9633 86.0555 49.7065 77.4372 49.7065H77.6945C69.0762 49.578 59.9435 49.9633 50.1675 50.734C45.0223 51.1193 40.1343 51.6331 35.375 52.2753" stroke="#282828" stroke-width="0.6782" stroke-linejoin="round"/>
<path d="M18.6535 82.9725C20.3585 82.9725 21.7407 81.6499 21.7407 80.0183C21.7407 78.3868 20.3585 77.0642 18.6535 77.0642C16.9486 77.0642 15.5664 78.3868 15.5664 80.0183C15.5664 81.6499 16.9486 82.9725 18.6535 82.9725Z" fill="white" stroke="#282828" stroke-width="0.6782" stroke-linejoin="round"/>
<path d="M133.266 80.0183C133.266 78.3486 134.681 77.0642 136.353 77.0642C138.025 77.0642 139.44 78.4771 139.44 80.0183C139.44 81.6881 138.025 82.9725 136.353 82.9725C134.681 83.1009 133.266 81.6881 133.266 80.0183Z" fill="white" stroke="#282828" stroke-width="0.6782" stroke-linejoin="round"/>
<path d="M141.238 49.7065L147.284 56.7708" stroke="#282828" stroke-width="0.6782" stroke-linejoin="round"/>
<path d="M142.137 45.8533L143.68 43.9267" stroke="#282828" stroke-width="0.6782" stroke-linejoin="round"/>
<path d="M138.536 35.4497C138.407 36.991 138.021 39.046 136.606 41.2295C135.191 43.413 133.519 44.6974 132.233 45.5965C131.204 46.3671 130.303 46.8809 129.66 47.1378" stroke="#282828" stroke-width="0.6782" stroke-linejoin="round"/>
<path d="M137.25 30.0552C136.736 30.6974 135.835 31.7249 134.549 33.0093C129.533 38.0185 125.288 39.1744 120.786 42.257C118.47 43.7983 115.126 46.4955 111.91 50.991" stroke="#282828" stroke-width="0.6782" stroke-linejoin="round"/>
<path d="M134.55 33.0092C134.036 29.7982 133.393 26.2019 131.978 22.2202C130.048 16.312 127.604 11.4312 125.289 7.8349" stroke="#282828" stroke-width="0.6782" stroke-linejoin="round"/>
<path d="M15.0506 29.5414C15.0506 26.9726 11.8349 24.7891 7.71867 24.7891C3.60249 24.7891 0.386719 26.9726 0.386719 29.5414C0.386719 32.1102 3.60249 34.2937 7.71867 34.2937C11.8349 34.2937 15.0506 32.2387 15.0506 29.5414Z" fill="#A5A4A4" stroke="#282828" stroke-width="0.6782" stroke-linejoin="round"/>
<path d="M8.61719 34.2937C9.26034 35.5781 9.90349 36.991 10.5466 38.2754C11.0612 39.3029 11.5757 40.202 12.0902 41.1011C13.1193 39.5598 14.1483 38.0185 15.306 36.4772C14.6628 35.1928 14.1483 34.0369 13.5052 32.7525C13.1193 32.624 11.9616 32.3671 10.5466 32.8809C9.5176 33.2662 8.87445 33.9084 8.61719 34.2937Z" fill="white" stroke="#282828" stroke-width="0.6782" stroke-miterlimit="10"/>
<path d="M147.281 34.2937C151.33 34.2937 154.613 32.166 154.613 29.5414C154.613 26.9168 151.33 24.7891 147.281 24.7891C143.232 24.7891 139.949 26.9168 139.949 29.5414C139.949 32.166 143.232 34.2937 147.281 34.2937Z" fill="#A5A4A4" stroke="#282828" stroke-width="0.6782" stroke-linejoin="round"/>
<path d="M146.38 34.2937C145.737 35.5781 145.094 36.991 144.451 38.2754C143.936 39.1745 143.551 40.0736 143.036 41.1011C142.007 39.5598 140.978 38.0185 139.82 36.4772C140.463 35.1928 140.978 34.0369 141.621 32.7525C142.007 32.624 143.165 32.3671 144.58 32.8809C145.48 33.2662 146.123 33.9084 146.38 34.2937Z" fill="white" stroke="#282828" stroke-width="0.6782" stroke-miterlimit="10"/>
</g>
<defs>
<clipPath id="clip0_2157_32518">
<rect width="155" height="112" fill="white"/>
</clipPath>
</defs>
</svg>
