<svg width="108" height="87" viewBox="0 0 108 87" fill="none" xmlns="http://www.w3.org/2000/svg">
<path d="M107.473 45.2437V11.409L99.827 13.003C90.9888 14.8456 84.6554 22.6355 84.6554 31.6637V39.9498H68.0068V25.6794H72.7635V19.2604C72.7635 14.7426 69.8336 10.9115 65.7712 9.55676V0.413574H59.474V9.37834L53.7366 16.435L47.9991 9.37834V0.413574H41.7019V9.55655C37.6395 10.9113 34.7094 14.7423 34.7094 19.2602V25.6792H39.4661V39.9494H22.8175V31.6633C22.8175 22.6351 16.4841 14.8452 7.64591 13.0026L0 11.409V45.2437C0 59.3959 11.4725 70.8685 25.625 70.8685H31.091C27.226 74.1319 24.765 79.0085 24.765 84.4512V86.8259H16.5408L7.21182 70.5003L1.74434 73.6246L17.3873 101L22.8548 97.8757L20.1392 93.1234H31.0622V84.4515C31.0622 78.1217 36.2119 72.9722 42.5417 72.9722V72.9189L46.6016 75.6254L40.2044 92.0249C47.9914 98.6994 59.482 98.6994 67.2689 92.0249L60.8718 75.6254L64.9316 72.9189V72.9722C71.2614 72.9722 76.4111 78.1217 76.4111 84.4515V93.1234H97.6074C103.047 93.1234 107.473 88.6977 107.473 83.2577C107.473 77.8177 103.047 73.392 97.6074 73.392C92.1674 73.392 87.7417 77.8177 87.7417 83.2577C87.7417 84.5159 87.981 85.7187 88.4124 86.8261H82.7083V84.4515C82.7083 79.0087 80.2474 74.1321 76.3823 70.8687H81.8483C96.0006 70.8685 107.473 59.3959 107.473 45.2437Z" fill="#EFF0F0"/>
</svg>
