<svg width="19" height="18" viewBox="0 0 19 18" fill="none" xmlns="http://www.w3.org/2000/svg">
<path d="M19 7.92545V1.94386L17.6483 2.22567C16.0858 2.55142 14.9661 3.92858 14.9661 5.52466V6.98955H12.0228V4.46671H12.8637V3.3319C12.8637 2.5332 12.3458 1.85591 11.6276 1.61641V0H10.5143V1.58487L9.5 2.83241L8.48569 1.58487V0H7.37241V1.61637C6.65423 1.85588 6.13622 2.53316 6.13622 3.33187V4.46667H6.97716V6.98948H4.03386V5.52458C4.03386 3.92851 2.9142 2.55134 1.35171 2.2256L0 1.94386V7.92545C0 10.4274 2.02821 12.4556 4.5302 12.4556H5.49653C4.81323 13.0326 4.37816 13.8947 4.37816 14.8569V15.2767H2.92422L1.27497 12.3905L0.308379 12.9429L3.07388 17.7825L4.04047 17.2302L3.56038 16.39H5.49145V14.8569C5.49145 13.7379 6.40185 12.8275 7.52088 12.8275V12.8181L8.23862 13.2966L7.10767 16.1958C8.48432 17.3758 10.5157 17.3758 11.8924 16.1958L10.7614 13.2966L11.4792 12.8181V12.8275C12.5982 12.8275 13.5086 13.7379 13.5086 14.8569V16.39H17.2559C18.2176 16.39 19 15.6076 19 14.6459C19 13.6842 18.2176 12.9017 17.2559 12.9017C16.2941 12.9017 15.5117 13.6842 15.5117 14.6459C15.5117 14.8683 15.554 15.081 15.6303 15.2767H14.6219V14.8569C14.6219 13.8947 14.1868 13.0326 13.5035 12.4556H14.4698C16.9718 12.4556 19 10.4274 19 7.92545Z" fill="#CA0100"/>
</svg>
