<svg width="19" height="18" viewBox="0 0 19 18" fill="none" xmlns="http://www.w3.org/2000/svg">
<path d="M1.84375 9.54932V16.2743C1.84375 16.893 2.347 17.3951 2.96457 17.3951H8.56869V9.54932H1.84375Z" fill="#CA0100"/>
<path d="M17.5311 5.06621H13.9848C14.2393 4.89248 14.4578 4.71988 14.6102 4.5652C15.5147 3.65622 15.5147 2.17673 14.6102 1.26774C13.7315 0.382289 12.2005 0.384531 11.3229 1.26774C10.8364 1.7553 9.54748 3.74028 9.72569 5.06621H9.64499C9.82208 3.74028 8.53313 1.7553 8.04782 1.26774C7.16909 0.384531 5.63805 0.384531 4.76044 1.26774C3.85706 2.17673 3.85706 3.65622 4.75932 4.5652C4.91287 4.71988 5.13143 4.89248 5.38586 5.06621H1.83957C1.222 5.06621 0.71875 5.56946 0.71875 6.18704V7.86827C0.71875 8.17762 0.969815 8.42868 1.27916 8.42868H8.56452V6.18704H10.8062V8.42868H18.0915C18.4009 8.42868 18.6519 8.17762 18.6519 7.86827V6.18704C18.6519 5.56946 18.1498 5.06621 17.5311 5.06621ZM8.49839 5.02923C8.49839 5.02923 8.45131 5.06621 8.29104 5.06621C7.51655 5.06621 6.03818 4.26146 5.55511 3.77502C5.08548 3.30204 5.08548 2.53091 5.55511 2.05792C5.78263 1.82927 6.08413 1.70374 6.40469 1.70374C6.72412 1.70374 7.02563 1.82927 7.25315 2.05792C8.00859 2.81784 8.75954 4.75911 8.49839 5.02923ZM11.0785 5.06621C10.9194 5.06621 10.8723 5.03035 10.8723 5.02923C10.6111 4.75911 11.3621 2.81784 12.1175 2.05792C12.5692 1.60175 13.3594 1.5995 13.8156 2.05792C14.2863 2.53091 14.2863 3.30204 13.8156 3.77502C13.3325 4.26146 11.8541 5.06621 11.0785 5.06621Z" fill="#CA0100"/>
<path d="M10.8047 9.54932V17.3951H16.4088C17.0275 17.3951 17.5296 16.893 17.5296 16.2743V9.54932H10.8047Z" fill="#CA0100"/>
</svg>
