<svg width="18" height="17" viewBox="0 0 18 17" fill="none" xmlns="http://www.w3.org/2000/svg">
<path d="M1.125 8.94482V15.6698C1.125 16.2885 1.62825 16.7906 2.24582 16.7906H7.84994V8.94482H1.125Z" fill="#CA0100"/>
<path d="M16.8124 4.46172H13.2661C13.5205 4.28799 13.7391 4.11539 13.8915 3.96071C14.796 3.05172 14.796 1.57224 13.8915 0.663248C13.0128 -0.222203 11.4817 -0.219961 10.6041 0.663248C10.1177 1.15081 8.82873 3.13579 9.00694 4.46172H8.92624C9.10333 3.13579 7.81438 1.15081 7.32907 0.663248C6.45034 -0.219961 4.9193 -0.219961 4.04169 0.663248C3.13831 1.57224 3.13831 3.05172 4.04057 3.96071C4.19412 4.11539 4.41268 4.28799 4.66711 4.46172H1.12082C0.50325 4.46172 0 4.96497 0 5.58254V7.26378C0 7.57313 0.251065 7.82419 0.560412 7.82419H7.84577V5.58254H10.0874V7.82419H17.3728C17.6821 7.82419 17.9332 7.57313 17.9332 7.26378V5.58254C17.9332 4.96497 17.4311 4.46172 16.8124 4.46172ZM7.77964 4.42473C7.77964 4.42473 7.73256 4.46172 7.57229 4.46172C6.7978 4.46172 5.31943 3.65697 4.83636 3.17053C4.36673 2.69754 4.36673 1.92642 4.83636 1.45343C5.06388 1.22478 5.36538 1.09925 5.68594 1.09925C6.00537 1.09925 6.30688 1.22478 6.5344 1.45343C7.28984 2.21335 8.04079 4.15461 7.77964 4.42473ZM10.3598 4.46172C10.2006 4.46172 10.1535 4.42585 10.1535 4.42473C9.89239 4.15461 10.6433 2.21335 11.3988 1.45343C11.8505 0.997253 12.6407 0.995012 13.0968 1.45343C13.5676 1.92642 13.5676 2.69754 13.0968 3.17053C12.6138 3.65697 11.1354 4.46172 10.3598 4.46172Z" fill="#CA0100"/>
<path d="M10.0859 8.94482V16.7906H15.6901C16.3088 16.7906 16.8109 16.2885 16.8109 15.6698V8.94482H10.0859Z" fill="#CA0100"/>
</svg>
