<svg width="21" height="19" viewBox="0 0 21 19" fill="none" xmlns="http://www.w3.org/2000/svg">
<path d="M1.26953 10.1218V17.7316C1.26953 18.4317 1.839 18.9999 2.53783 18.9999H8.87934V10.1218H1.26953Z" fill="#CA0100"/>
<path d="M19.0245 5.04879H15.0116C15.2995 4.8522 15.5468 4.65688 15.7193 4.48186C16.7428 3.45327 16.7428 1.77911 15.7193 0.750517C14.725 -0.25144 12.9925 -0.248904 11.9994 0.750517C11.449 1.30223 9.99041 3.54839 10.1921 5.04879H10.1007C10.3011 3.54839 8.84259 1.30223 8.29342 0.750517C7.29907 -0.248904 5.56657 -0.248904 4.57349 0.750517C3.55124 1.77911 3.55124 3.45327 4.57222 4.48186C4.74598 4.65688 4.9933 4.8522 5.2812 5.04879H1.2683C0.569467 5.04879 0 5.61826 0 6.31709V8.21954C0 8.56959 0.284099 8.85369 0.63415 8.85369H8.87811V6.31709H11.4147V8.85369H19.6587C20.0087 8.85369 20.2928 8.56959 20.2928 8.21954V6.31709C20.2928 5.61826 19.7246 5.04879 19.0245 5.04879ZM8.80328 5.00693C8.80328 5.00693 8.75001 5.04879 8.56864 5.04879C7.69224 5.04879 6.01936 4.13815 5.47272 3.58771C4.9413 3.05248 4.9413 2.17989 5.47272 1.64467C5.73018 1.38594 6.07136 1.24389 6.43409 1.24389C6.79556 1.24389 7.13673 1.38594 7.39419 1.64467C8.24903 2.50458 9.09879 4.70127 8.80328 5.00693ZM11.7229 5.04879C11.5428 5.04879 11.4895 5.0082 11.4895 5.00693C11.194 4.70127 12.0438 2.50458 12.8986 1.64467C13.4097 1.12847 14.3039 1.12593 14.8201 1.64467C15.3528 2.17989 15.3528 3.05248 14.8201 3.58771C14.2735 4.13815 12.6006 5.04879 11.7229 5.04879Z" fill="#CA0100"/>
<path d="M11.4141 10.1218V18.9999H17.7556C18.4557 18.9999 19.0239 18.4317 19.0239 17.7316V10.1218H11.4141Z" fill="#CA0100"/>
</svg>
