<svg width="22" height="21" viewBox="0 0 22 21" fill="none" xmlns="http://www.w3.org/2000/svg">
<path d="M1.32812 11.4512V19.4106C1.32812 20.1428 1.92375 20.7371 2.65469 20.7371H9.28752V11.4512H1.32812Z" fill="#CA0100"/>
<path d="M19.8985 6.14547H15.7012C16.0024 5.93986 16.2611 5.73557 16.4415 5.5525C17.512 4.47665 17.512 2.72559 16.4415 1.64974C15.4014 0.601755 13.5893 0.604408 12.5506 1.64974C11.9749 2.2268 10.4494 4.57615 10.6603 6.14547H10.5648C10.7744 4.57615 9.24882 2.2268 8.67442 1.64974C7.63439 0.604408 5.8223 0.604408 4.7836 1.64974C3.71439 2.72559 3.71439 4.47665 4.78227 5.5525C4.96401 5.73557 5.22269 5.93986 5.52382 6.14547H1.32657C0.595628 6.14547 0 6.7411 0 7.47204V9.46189C0 9.82802 0.297151 10.1252 0.663283 10.1252H9.28596V7.47204H11.9391V10.1252H20.5618C20.9279 10.1252 21.2251 9.82802 21.2251 9.46189V7.47204C21.2251 6.7411 20.6308 6.14547 19.8985 6.14547ZM9.2077 6.1017C9.2077 6.1017 9.15198 6.14547 8.96228 6.14547C8.04562 6.14547 6.29588 5.193 5.72413 4.61727C5.1683 4.05746 5.1683 3.14478 5.72413 2.58497C5.99343 2.31435 6.35027 2.16578 6.72967 2.16578C7.10774 2.16578 7.46459 2.31435 7.73388 2.58497C8.62799 3.48438 9.51679 5.782 9.2077 6.1017ZM12.2615 6.14547C12.0731 6.14547 12.0174 6.10302 12.0174 6.1017C11.7083 5.782 12.5971 3.48438 13.4912 2.58497C14.0258 2.04506 14.961 2.04241 15.5009 2.58497C16.0581 3.14478 16.0581 4.05746 15.5009 4.61727C14.9292 5.193 13.1794 6.14547 12.2615 6.14547Z" fill="#CA0100"/>
<path d="M11.9375 11.4512V20.7371H18.5703C19.3026 20.7371 19.8969 20.1428 19.8969 19.4106V11.4512H11.9375Z" fill="#CA0100"/>
</svg>
