<svg width="11" height="11" viewBox="0 0 11 11" fill="none" xmlns="http://www.w3.org/2000/svg">
<path d="M0.859375 5.81622V9.50763C0.859375 9.84724 1.13562 10.1229 1.47461 10.1229H4.55078V5.81622H0.859375Z" fill="white"/>
<path d="M9.47852 3.35534H7.53191C7.67157 3.25998 7.79154 3.16524 7.87522 3.08033C8.37171 2.58138 8.37171 1.76927 7.87522 1.27032C7.39287 0.78428 6.55246 0.78551 6.07073 1.27032C5.80372 1.53794 5.0962 2.62752 5.19402 3.35534H5.14973C5.24693 2.62752 4.53941 1.53794 4.27302 1.27032C3.79067 0.78551 2.95026 0.78551 2.46854 1.27032C1.97266 1.76927 1.97266 2.58138 2.46792 3.08033C2.55221 3.16524 2.67218 3.25998 2.81184 3.35534H0.865234C0.52624 3.35534 0.25 3.63158 0.25 3.97058V4.89343C0.25 5.06323 0.387813 5.20105 0.557617 5.20105H4.55664V3.97058H5.78711V5.20105H9.78613C9.95594 5.20105 10.0938 5.06323 10.0938 4.89343V3.97058C10.0938 3.63158 9.81812 3.35534 9.47852 3.35534ZM4.52034 3.33504C4.52034 3.33504 4.4945 3.35534 4.40652 3.35534C3.9814 3.35534 3.1699 2.91361 2.90474 2.64659C2.64695 2.38697 2.64695 1.96368 2.90474 1.70406C3.02963 1.57855 3.19513 1.50964 3.37108 1.50964C3.54643 1.50964 3.71192 1.57855 3.83682 1.70406C4.25148 2.12118 4.66369 3.18677 4.52034 3.33504ZM5.93661 3.35534C5.84925 3.35534 5.82341 3.33566 5.82341 3.33504C5.68006 3.18677 6.09227 2.12118 6.50693 1.70406C6.75487 1.45365 7.18861 1.45242 7.43901 1.70406C7.69741 1.96368 7.69741 2.38697 7.43901 2.64659C7.17385 2.91361 6.36235 3.35534 5.93661 3.35534Z" fill="white"/>
<path d="M5.78125 5.81622V10.1229H8.85742C9.19703 10.1229 9.47266 9.84724 9.47266 9.50763V5.81622H5.78125Z" fill="white"/>
</svg>
