<svg width="17" height="15" viewBox="0 0 17 15" fill="none" xmlns="http://www.w3.org/2000/svg">
<path d="M9.17663 2.08619L9.17661 2.08617L8.89377 2.38505L8.16745 3.15255L7.44112 2.38505L7.15829 2.08617L7.15199 2.07952L7.15202 2.07949C5.88126 0.711806 3.74239 0.6332 2.37462 1.90388L9.17663 2.08619ZM9.17663 2.08619L9.18197 2.08047M9.17663 2.08619L9.18197 2.08047M9.18197 2.08047C9.82268 1.39273 10.7199 1.00155 11.6598 1.00009C12.5983 1.00192 13.494 1.39294 14.1335 2.07996C15.5229 3.57922 15.5239 5.89517 14.1364 7.39556L8.16741 13.6926L2.19613 7.39548C0.808577 5.89483 0.809624 3.57862 2.19927 2.0792M9.18197 2.08047L2.19927 2.0792M2.19927 2.0792C2.25538 2.01883 2.31381 1.96042 2.37447 1.90402L2.19927 2.0792Z" fill="#737373" stroke="#737373" stroke-width="2"/>
</svg>
