<svg width="18" height="12" viewBox="0 0 18 12" fill="none" xmlns="http://www.w3.org/2000/svg">
<path d="M8.64389 0.085083C13.4949 0.085083 17.2344 2.43753 17.2344 5.6436C17.2344 8.84967 13.4949 11.2021 8.64389 11.2021C3.79292 11.2021 0.0535164 8.84967 0.0535164 5.6436C0.0535164 2.43753 3.79303 0.085083 8.64389 0.085083ZM3.39427 2.70294C3.39427 3.43885 4.62879 4.00661 6.60685 4.23431C6.79149 2.47415 7.32581 1.3161 8.01153 0.883921C5.90134 1.00889 3.39427 1.72087 3.39427 2.70265V2.70294ZM8.64389 8.644C9.33159 8.644 9.89363 7.62163 9.93749 5.65183C9.52488 5.68386 9.09368 5.70021 8.64389 5.70087C8.19411 5.70153 7.76295 5.68519 7.3504 5.65183C7.39416 7.62163 7.95641 8.6437 8.64389 8.6437V8.644ZM8.64389 4.343C9.06672 4.343 9.46983 4.33089 9.8532 4.30667C9.66565 3.12827 9.19499 2.1591 8.64389 2.1591C8.0928 2.1591 7.62277 3.12827 7.43469 4.30667C7.81772 4.3301 8.22079 4.34211 8.64389 4.34271V4.343ZM9.27491 0.882928C9.96146 1.31451 10.4962 2.47266 10.6804 4.23412C12.6591 4.00632 13.8936 3.43855 13.8936 2.70265C13.8936 1.718 11.3863 1.00482 9.27491 0.882631V0.882928ZM15.7756 5.42523C15.7775 4.64769 15.5142 3.89061 15.0254 3.26793C14.8334 4.32285 13.218 5.23326 10.7505 5.56558C10.7505 5.59178 10.7513 5.61739 10.7513 5.64389C10.7513 8.2159 10.123 9.87352 9.25949 10.3965C12.9102 10.1765 15.7756 8.02274 15.7756 5.42523ZM8.02861 10.3965C7.16514 9.87352 6.53683 8.2159 6.53683 5.64389C6.53683 5.61739 6.53746 5.59178 6.53756 5.56558C4.07008 5.23276 2.45473 4.32285 2.26269 3.26793C1.77388 3.89061 1.5106 4.64769 1.51248 5.42523C1.51227 8.02274 4.37809 10.1765 8.02861 10.396V10.3965Z" fill="white"/>
</svg>
