<svg width="22" height="19" viewBox="0 0 22 19" fill="none" xmlns="http://www.w3.org/2000/svg">
<path d="M0 6.78548V17.6426C0 18.392 0.60758 18.9997 1.35714 18.9997H5.42854V5.42834H1.35714C0.60758 5.42834 0 6.03593 0 6.78548Z" fill="#CA0100"/>
<path d="M19.1254 6.78559H15.1163C14.7658 6.78559 14.5902 6.55167 14.5312 6.45094C14.4722 6.35088 14.3529 6.08383 14.5226 5.77767L15.936 3.23238C16.2462 2.67508 16.278 2.0197 16.0242 1.43457C15.7704 0.848773 15.2694 0.424004 14.6498 0.269604L13.6531 0.0204419C13.4106 -0.0405233 13.1535 0.0370085 12.9845 0.224543L7.5732 6.23624C7.01193 6.86113 6.70312 7.66693 6.70312 8.50586V15.607C6.70312 17.4777 8.22526 18.9998 10.096 18.9998L16.8465 18.9991C18.3707 18.9991 19.7165 17.9727 20.1188 16.5035L21.5673 9.85569C21.6097 9.67081 21.6316 9.48129 21.6316 9.29177C21.6316 7.91011 20.5071 6.78557 19.1254 6.78557L19.1254 6.78559Z" fill="#CA0100"/>
</svg>
