<svg width="17" height="18" viewBox="0 0 17 18" fill="none" xmlns="http://www.w3.org/2000/svg">
<path d="M15.0161 2.38867H10.0336C9.55498 2.38867 9.10512 2.57504 8.76674 2.91345L1.72009 9.96014C1.38168 10.2985 1.19531 10.7484 1.19531 11.227C1.19531 11.7055 1.38168 12.1554 1.72009 12.4938L6.70258 17.4761C7.05182 17.8254 7.51061 18 7.96936 18C8.42812 18 8.88691 17.8253 9.23615 17.4761L16.2829 10.4293C16.6213 10.0909 16.8077 9.64106 16.8077 9.16251V4.18017C16.8077 3.19234 16.004 2.38867 15.0161 2.38867ZM12.6274 8.36046C11.6395 8.36046 10.8359 7.55678 10.8359 6.56893C10.8359 5.58107 11.6395 4.7774 12.6274 4.7774C13.6152 4.7774 14.4189 5.58107 14.4189 6.56893C14.4189 7.55678 13.6152 8.36046 12.6274 8.36046Z" fill="#C2C2C4"/>
<path d="M13.8208 0H8.83825C8.35967 0 7.90981 0.186363 7.57143 0.524778L0.524778 7.57146C0.186363 7.90984 0 8.35974 0 8.83829C0 9.21259 0.114469 9.56911 0.32611 9.86872C0.466699 9.59415 0.650215 9.33997 0.874653 9.1156L7.92127 2.06891C8.48521 1.50497 9.23502 1.19436 10.0326 1.19436H15.0151C15.1888 1.19436 15.3589 1.21011 15.5246 1.23877C15.2911 0.520664 14.6158 0 13.8208 0Z" fill="#C2C2C4"/>
</svg>
