<svg width="129" height="90" viewBox="0 0 129 90" fill="none" xmlns="http://www.w3.org/2000/svg">
<path d="M115.25 18.3342H77.0062C73.3328 18.3342 69.8799 19.7647 67.2827 22.3622L13.1959 76.4492C10.5984 79.0464 9.16797 82.4996 9.16797 86.1727C9.16797 89.8458 10.5984 93.299 13.1959 95.8962L51.4391 134.138C54.1197 136.819 57.6412 138.159 61.1623 138.159C64.6835 138.159 68.205 136.819 70.8856 134.138L124.973 80.0505C127.57 77.453 129.001 74.0001 129.001 70.327V32.0849C129.001 24.5028 122.832 18.3342 115.25 18.3342ZM96.9152 64.1708C89.3329 64.1708 83.1643 58.0022 83.1643 50.4199C83.1643 42.8376 89.3329 36.669 96.9152 36.669C104.497 36.669 110.666 42.8376 110.666 50.4199C110.666 58.0022 104.497 64.1708 96.9152 64.1708Z" fill="#EFF0F0"/>
<path d="M106.082 0H67.8382C64.1648 0 60.7119 1.43044 58.1147 4.02794L4.02794 58.115C1.43044 60.7122 0 64.1654 0 67.8385C0 70.7115 0.878608 73.448 2.50306 75.7476C3.58216 73.6401 4.99074 71.6891 6.71342 69.967L60.7999 15.88C65.1284 11.5514 70.8836 9.16737 77.0056 9.16737H115.249C116.582 9.16737 117.888 9.28826 119.16 9.50818C117.367 3.99637 112.184 0 106.082 0Z" fill="#EFF0F0"/>
</svg>
