<svg width="123" height="87" viewBox="0 0 123 87" fill="none" xmlns="http://www.w3.org/2000/svg">
<path d="M99.9382 87.1256C87.223 87.1256 76.8756 76.7782 76.8756 64.063C76.8756 51.3478 87.223 41.0003 99.9382 41.0003H112.751V30.7502C112.751 25.0973 108.154 20.5002 102.501 20.5002H97.3757V10.2501C97.3757 4.59716 92.7786 0 87.1256 0H15.3751C7.77468 0 1.49139 5.55554 0.261377 12.8075C0.148626 13.2277 0 13.6377 0 14.0939V92.2507C0 100.728 6.8983 107.626 15.3751 107.626H102.501C108.154 107.626 112.751 103.029 112.751 97.3757V87.1256H99.9382ZM10.2501 15.3751C10.2501 12.5512 12.5461 10.2501 15.3751 10.2501H87.1256V20.5002H15.3751C12.5461 20.5002 10.2501 18.199 10.2501 15.3751Z" fill="#EFF0F0"/>
<path d="M119.157 48.6875H99.9376C91.4608 48.6875 84.5625 55.5858 84.5625 64.0626C84.5625 72.5394 91.4608 79.4377 99.9376 79.4377H119.157C121.278 79.4377 123 77.7157 123 75.5939V52.5313C123 50.4095 121.278 48.6875 119.157 48.6875ZM99.9376 69.1877C97.1086 69.1877 94.8126 66.8916 94.8126 64.0626C94.8126 61.2336 97.1086 58.9376 99.9376 58.9376C102.767 58.9376 105.063 61.2336 105.063 64.0626C105.063 66.8916 102.767 69.1877 99.9376 69.1877Z" fill="#EFF0F0"/>
</svg>
