<svg width="17" height="15" viewBox="0 0 17 15" fill="none" xmlns="http://www.w3.org/2000/svg">
<path d="M13.8125 12.0417C12.0551 12.0417 10.625 10.6116 10.625 8.85418C10.625 7.0968 12.0551 5.66668 13.8125 5.66668H15.5834V4.25001C15.5834 3.46871 14.948 2.83334 14.1667 2.83334H13.4584V1.41667C13.4584 0.635376 12.823 0 12.0417 0H2.125C1.07454 0 0.206125 0.767835 0.0361251 1.77013C0.0205417 1.82821 0 1.88488 0 1.94792V12.75C0 13.9216 0.953418 14.875 2.125 14.875H14.1667C14.948 14.875 15.5834 14.2396 15.5834 13.4584V12.0417H13.8125ZM1.41667 2.125C1.41667 1.73471 1.734 1.41667 2.125 1.41667H12.0417V2.83334H2.125C1.734 2.83334 1.41667 2.5153 1.41667 2.125Z" fill="#CA0100"/>
<path d="M16.4688 6.72913H13.8125C12.6409 6.72913 11.6875 7.68254 11.6875 8.85413C11.6875 10.0257 12.6409 10.9791 13.8125 10.9791H16.4688C16.762 10.9791 17 10.7411 17 10.4479V7.26038C17 6.96713 16.762 6.72913 16.4688 6.72913ZM13.8125 9.56246C13.4215 9.56246 13.1042 9.24513 13.1042 8.85413C13.1042 8.46313 13.4215 8.14579 13.8125 8.14579C14.2035 8.14579 14.5208 8.46313 14.5208 8.85413C14.5208 9.24513 14.2035 9.56246 13.8125 9.56246Z" fill="#CA0100"/>
</svg>
