<svg width="20" height="18" viewBox="0 0 20 18" fill="none" xmlns="http://www.w3.org/2000/svg">
<path d="M4.69886 9.74403C3.48991 9.74403 2.52432 9.33317 1.80209 8.51147C1.07986 7.68976 0.71875 6.57348 0.71875 5.16263C0.71875 3.76728 1.07986 2.65876 1.80209 1.83705C2.52432 1.01534 3.48991 0.604492 4.69886 0.604492C5.90781 0.604492 6.8734 1.01534 7.59562 1.83705C8.31785 2.65876 8.67897 3.76728 8.67897 5.16263C8.67897 6.57348 8.31785 7.68976 7.59562 8.51147C6.8734 9.33317 5.90781 9.74403 4.69886 9.74403ZM14.0486 0.744027H16.4743L5.97061 17.2557H3.54486L14.0486 0.744027ZM4.69886 7.74403C5.7508 7.74403 6.27677 6.88356 6.27677 5.16263C6.27677 3.4572 5.7508 2.60449 4.69886 2.60449C3.64692 2.60449 3.12095 3.4572 3.12095 5.16263C3.12095 6.88356 3.64692 7.74403 4.69886 7.74403ZM15.2968 17.3952C14.0721 17.3952 13.0987 16.9843 12.3765 16.1626C11.6542 15.3254 11.2931 14.2091 11.2931 12.8138C11.2931 11.4184 11.6542 10.3099 12.3765 9.48821C13.1144 8.66651 14.0878 8.25565 15.2968 8.25565C16.5057 8.25565 17.4713 8.66651 18.1935 9.48821C18.9158 10.3099 19.2769 11.4184 19.2769 12.8138C19.2769 14.2246 18.9158 15.3409 18.1935 16.1626C17.4713 16.9843 16.5057 17.3952 15.2968 17.3952ZM15.2968 15.3952C16.3487 15.3952 16.8747 14.5347 16.8747 12.8138C16.8747 11.1084 16.3487 10.2557 15.2968 10.2557C14.2291 10.2557 13.6953 11.1084 13.6953 12.8138C13.6953 14.5347 14.2291 15.3952 15.2968 15.3952Z" fill="#CA0100"/>
</svg>
