<svg width="17" height="17" viewBox="0 0 17 17" fill="none" xmlns="http://www.w3.org/2000/svg">
<path d="M6.19399 7.76669C6.59453 7.76669 6.91923 7.44854 6.91923 7.05608C6.91923 6.66361 6.59453 6.34546 6.19399 6.34546C5.79345 6.34546 5.46875 6.66361 5.46875 7.05608C5.46875 7.44854 5.79345 7.76669 6.19399 7.76669Z" fill="white"/>
<path d="M10.8034 10.6511C11.2039 10.6511 11.5286 10.3329 11.5286 9.94041C11.5286 9.54792 11.2039 9.22974 10.8034 9.22974C10.4028 9.22974 10.0781 9.54792 10.0781 9.94041C10.0781 10.3329 10.4028 10.6511 10.8034 10.6511Z" fill="white"/>
<path d="M16.7816 9.43878L16.5185 9.08696C16.2341 8.70378 16.227 8.18475 16.5078 7.79461L16.7638 7.4393C17.1549 6.89589 16.9736 6.13999 16.3728 5.82299L15.9817 5.61747C15.5551 5.39453 15.3204 4.92776 15.4022 4.4575L15.4769 4.02904C15.5906 3.37415 15.0894 2.76804 14.4103 2.74017L13.966 2.72275C13.4825 2.70185 13.063 2.38138 12.9279 1.92505L12.8034 1.50704C12.615 0.866093 11.8969 0.535168 11.2712 0.799908L10.8624 0.970595C10.418 1.1587 9.89893 1.04723 9.57542 0.691922L9.28034 0.367964C8.82885 -0.126681 8.03606 -0.123197 7.58812 0.381898L7.2966 0.709339C6.97664 1.06813 6.46115 1.18657 6.01321 1.00543L5.60082 0.838226C4.97157 0.583936 4.26055 0.928794 4.07924 1.56974L3.96192 1.99124C3.83394 2.45105 3.42155 2.77849 2.93806 2.80287L2.49367 2.82726C1.81465 2.86557 1.32404 3.47866 1.44847 4.13354L1.53024 4.562C1.61912 5.02878 1.39159 5.49904 0.968534 5.72894L0.581029 5.94143C-0.0126721 6.26539 -0.183317 7.02477 0.218409 7.56122L0.481486 7.91304C0.765893 8.29622 0.773004 8.81525 0.492151 9.20539L0.236184 9.5607C-0.154876 10.1041 0.0264339 10.86 0.627245 11.177L1.01831 11.3825C1.44492 11.6055 1.67955 12.0722 1.59779 12.5425L1.52313 12.971C1.40937 13.6258 1.91063 14.232 2.58966 14.2598L3.03404 14.2772C3.51754 14.2981 3.93704 14.6186 4.07213 15.0749L4.19656 15.493C4.38498 16.1339 5.10311 16.4648 5.7288 16.2001L6.13764 16.0294C6.58203 15.8413 7.10107 15.9528 7.42458 16.3081L7.71966 16.632C8.17471 17.1267 8.96749 17.1232 9.41188 16.6181L9.7034 16.2907C10.0234 15.9319 10.5388 15.8134 10.9868 15.9946L11.3992 16.1618C12.0284 16.4161 12.7394 16.0712 12.9208 15.4303L13.0381 15.0088C13.1661 14.549 13.5785 14.2215 14.0619 14.1971L14.5063 14.1727C15.1854 14.1344 15.676 13.5213 15.5515 12.8665L15.4698 12.438C15.3809 11.9712 15.6084 11.501 16.0315 11.2711L16.419 11.0586C17.0127 10.7381 17.1833 9.97871 16.7816 9.43878ZM4.44186 7.05612C4.44186 6.10863 5.22398 5.34228 6.19097 5.34228C7.15795 5.34228 7.94007 6.10863 7.94007 7.05612C7.94007 8.00361 7.15795 8.76997 6.19097 8.76997C5.22398 8.76997 4.44186 8.00013 4.44186 7.05612ZM6.5287 11.4766C6.37939 11.6542 6.1092 11.6786 5.92789 11.5323C5.74658 11.386 5.72169 11.1213 5.87101 10.9436L10.4606 5.5269C10.6099 5.34925 10.8801 5.32487 11.0614 5.47117C11.2428 5.61747 11.2676 5.88221 11.1183 6.05987L6.5287 11.4766ZM10.8019 11.6542C9.83494 11.6542 9.05282 10.8879 9.05282 9.94039C9.05282 8.9929 9.83494 8.22655 10.8019 8.22655C11.7689 8.22655 12.551 8.9929 12.551 9.94039C12.551 10.8879 11.7689 11.6542 10.8019 11.6542Z" fill="white"/>
</svg>
