<svg width="19" height="18" viewBox="0 0 19 18" fill="none" xmlns="http://www.w3.org/2000/svg">
<path d="M4.07487 9.35714C2.83714 9.35714 1.84856 8.93651 1.10914 8.09524C0.369712 7.25397 0 6.11111 0 4.66667C0 3.2381 0.369712 2.10317 1.10914 1.2619C1.84856 0.420635 2.83714 0 4.07487 0C5.31261 0 6.30118 0.420635 7.04061 1.2619C7.78003 2.10317 8.14975 3.2381 8.14975 4.66667C8.14975 6.11111 7.78003 7.25397 7.04061 8.09524C6.30118 8.93651 5.31261 9.35714 4.07487 9.35714ZM13.6472 0.142857H16.1307L5.3769 17.0476H2.8934L13.6472 0.142857ZM4.07487 7.30952C5.15186 7.30952 5.69036 6.42857 5.69036 4.66667C5.69036 2.92063 5.15186 2.04762 4.07487 2.04762C2.99788 2.04762 2.45939 2.92063 2.45939 4.66667C2.45939 6.42857 2.99788 7.30952 4.07487 7.30952ZM14.9251 17.1905C13.6713 17.1905 12.6747 16.7698 11.9353 15.9286C11.1959 15.0714 10.8261 13.9286 10.8261 12.5C10.8261 11.0714 11.1959 9.93651 11.9353 9.09524C12.6908 8.25397 13.6874 7.83333 14.9251 7.83333C16.1629 7.83333 17.1514 8.25397 17.8909 9.09524C18.6303 9.93651 19 11.0714 19 12.5C19 13.9444 18.6303 15.0873 17.8909 15.9286C17.1514 16.7698 16.1629 17.1905 14.9251 17.1905ZM14.9251 15.1429C16.0021 15.1429 16.5406 14.2619 16.5406 12.5C16.5406 10.754 16.0021 9.88095 14.9251 9.88095C13.8321 9.88095 13.2855 10.754 13.2855 12.5C13.2855 14.2619 13.8321 15.1429 14.9251 15.1429Z" fill="#CA0100"/>
</svg>
