<svg width="21" height="19" viewBox="0 0 21 19" fill="none" xmlns="http://www.w3.org/2000/svg">
<path d="M4.50381 10.3421C3.13579 10.3421 2.04315 9.87719 1.22589 8.94737C0.408629 8.01754 0 6.75439 0 5.15789C0 3.57895 0.408629 2.32456 1.22589 1.39474C2.04315 0.464912 3.13579 0 4.50381 0C5.87183 0 6.96447 0.464912 7.78173 1.39474C8.59898 2.32456 9.00762 3.57895 9.00762 5.15789C9.00762 6.75439 8.59898 8.01754 7.78173 8.94737C6.96447 9.87719 5.87183 10.3421 4.50381 10.3421ZM15.0838 0.157894H17.8287L5.94289 18.8421H3.19797L15.0838 0.157894ZM4.50381 8.07895C5.69416 8.07895 6.28934 7.10526 6.28934 5.15789C6.28934 3.22807 5.69416 2.26316 4.50381 2.26316C3.31345 2.26316 2.71827 3.22807 2.71827 5.15789C2.71827 7.10526 3.31345 8.07895 4.50381 8.07895ZM16.4962 19C15.1104 19 14.0089 18.5351 13.1916 17.6053C12.3744 16.6579 11.9657 15.3947 11.9657 13.8158C11.9657 12.2368 12.3744 10.9825 13.1916 10.0526C14.0267 9.12281 15.1282 8.6579 16.4962 8.6579C17.8642 8.6579 18.9569 9.12281 19.7741 10.0526C20.5914 10.9825 21 12.2368 21 13.8158C21 15.4123 20.5914 16.6754 19.7741 17.6053C18.9569 18.5351 17.8642 19 16.4962 19ZM16.4962 16.7368C17.6865 16.7368 18.2817 15.7632 18.2817 13.8158C18.2817 11.886 17.6865 10.9211 16.4962 10.9211C15.2881 10.9211 14.684 11.886 14.684 13.8158C14.684 15.7632 15.2881 16.7368 16.4962 16.7368Z" fill="#CA0100"/>
</svg>
