<svg width="19" height="18" viewBox="0 0 19 18" fill="none" xmlns="http://www.w3.org/2000/svg">
<path d="M5.02912 10.1853L6.44422 11.0207L4.60251 7.36572L0.479415 7.48854L1.81086 8.27827L0 11.63C0 11.63 1.45427 14.2656 2.44573 15.8392C2.85098 16.4823 3.39329 16.8466 3.91364 16.8466H9.20857V13.0291L3.45737 13.0273L5.02912 10.1853Z" fill="#CA0100"/>
<path d="M9.90555 5.87103L13.9183 6.11133L15.8425 2.46409L14.4992 3.23365L12.4741 0.00649564C12.4741 0.00649564 9.46411 -0.0279178 7.60756 0.0616759C6.84809 0.0984627 6.26306 0.390384 6.00734 0.841913L3.39844 5.45035L6.72053 7.33123L9.55548 2.32644L11.2542 5.09435L9.90555 5.87103Z" fill="#CA0100"/>
<path d="M18.5307 10.5276L16.012 5.86987L12.6543 7.68667L15.3878 12.746L12.1405 12.7146L12.1892 11.2437L9.86328 14.4317L11.9322 18L11.9934 16.4538L15.8038 16.452C15.8038 16.452 17.4307 13.9185 18.3415 12.2987C18.7159 11.6359 18.7782 10.9862 18.5307 10.5276Z" fill="#CA0100"/>
</svg>
