<svg width="147" height="96" viewBox="0 0 147 96" fill="none" xmlns="http://www.w3.org/2000/svg">
<path d="M39.5806 80.3771L50.7179 86.952L36.2231 58.1865L3.77314 59.1532L14.252 65.3686L0 91.7478C0 91.7478 11.4455 112.491 19.2486 124.875C22.438 129.937 26.7062 132.804 30.8015 132.804H72.4741V102.759L27.2105 102.745L39.5806 80.3771Z" fill="#EFF0F0"/>
<path d="M77.9433 46.4232L109.525 48.3145L124.669 19.6097L114.096 25.6663L98.1586 0.267675C98.1586 0.267675 74.4691 -0.00316867 59.8575 0.70196C53.8802 0.991482 49.2759 3.28899 47.2632 6.84265L26.7305 43.1124L52.8763 57.9154L75.1882 18.5263L88.5576 40.3106L77.9433 46.4232Z" fill="#EFF0F0"/>
<path d="M145.833 83.0709L126.01 46.4136L99.5836 60.7123L121.097 100.531L95.5396 100.284L95.9225 88.7073L77.6172 113.798L93.9005 141.881L94.3815 129.712L124.37 129.698C124.37 129.698 137.175 109.758 144.343 97.01C147.289 91.794 147.78 86.6806 145.833 83.0709Z" fill="#EFF0F0"/>
</svg>
