<svg width="18" height="20" viewBox="0 0 18 20" fill="none" xmlns="http://www.w3.org/2000/svg">
<path d="M0.450126 16.8497H3.60019V19.5501C3.60019 19.6815 3.64223 19.789 3.72681 19.8731C3.81115 19.9577 3.91897 20 4.05032 20H6.39865C6.52052 20 6.62598 19.9577 6.71506 19.8731C6.80414 19.789 6.84854 19.6814 6.84854 19.5501V16.8497H13.9501C14.0812 16.8497 14.189 16.808 14.2736 16.7234C14.3582 16.6388 14.4002 16.5312 14.4002 16.3998V14.5997C14.4002 14.4691 14.3582 14.3608 14.2736 14.2767C14.1893 14.1921 14.0812 14.1498 13.9501 14.1498H6.84831V12.4903H11.6296C13.5045 12.4903 15.0347 11.919 16.221 10.7748C17.4068 9.63176 18 8.15523 18 6.34514C18 4.53625 17.4068 3.05969 16.221 1.91549C15.035 0.772419 13.5044 0.199951 11.6296 0.199951H4.05009C3.9187 0.199951 3.81111 0.24222 3.72657 0.32633C3.64223 0.410905 3.59996 0.519196 3.59996 0.649844V9.4954H0.450126C0.318779 9.4954 0.211148 9.53985 0.126611 9.62889C0.0423073 9.71796 0 9.82342 0 9.94526V12.0404C0 12.1717 0.0420356 12.2794 0.126611 12.3639C0.211187 12.4485 0.318547 12.4903 0.450126 12.4903H3.60019V14.1497H0.450126C0.318779 14.1497 0.211148 14.1921 0.126611 14.2767C0.0423073 14.3607 0 14.4688 0 14.5997V16.3998C0 16.5311 0.0420356 16.6388 0.126611 16.7233C0.211148 16.808 0.318741 16.8497 0.450126 16.8497ZM6.84831 3.19558H11.3483C12.342 3.19558 13.1434 3.4861 13.753 4.06734C14.3622 4.64862 14.667 5.40825 14.667 6.34538C14.667 7.28297 14.3622 8.04283 13.753 8.62341C13.1434 9.20515 12.3419 9.49568 11.3483 9.49568H6.84831V3.19558Z" fill="#CA0100"/>
</svg>
