<svg width="18" height="23" viewBox="0 0 18 23" fill="none" xmlns="http://www.w3.org/2000/svg">
<path d="M0.841616 11.9968C0.706412 10.8251 0.819082 9.69386 1.12555 8.64827C2.14409 5.17351 5.33943 2.61814 9.12967 2.57307V0.301635C9.12967 0.175444 9.28741 0.107842 9.39106 0.184458L14.0646 3.61866C14.1413 3.67725 14.1413 3.79442 14.0646 3.84851L9.39557 7.28271C9.28741 7.35932 9.13417 7.29172 9.13417 7.16553V4.8986C6.6419 4.93916 4.51468 6.47599 3.59979 8.64827C3.25277 9.46852 3.077 10.3744 3.12658 11.3253C3.19418 12.6323 3.68542 13.8356 4.4606 14.8091C4.87522 15.3274 4.77607 16.0845 4.23976 16.4766C3.73049 16.8507 3.01841 16.747 2.62632 16.2513C1.66637 15.0525 1.0264 13.5923 0.841616 11.9968ZM14.3351 7.63424C15.1147 8.60321 15.606 9.81104 15.6691 11.118C15.7186 12.0735 15.5384 12.9793 15.1959 13.7951C14.281 15.9674 12.1537 17.5087 9.66147 17.5447V15.2778C9.66147 15.1516 9.50373 15.084 9.40008 15.1606L4.7265 18.5948C4.64988 18.6534 4.64988 18.7706 4.7265 18.8247L9.39557 22.2589C9.50373 22.3355 9.65697 22.2679 9.65697 22.1417V19.8703C13.4472 19.8297 16.6471 17.2743 17.6611 13.7951C17.9676 12.7495 18.0757 11.6183 17.945 10.4465C17.7647 8.85108 17.1248 7.39087 16.1648 6.19206C15.7682 5.6963 15.0606 5.59265 14.5514 5.96671C14.0196 6.35881 13.9204 7.11595 14.3351 7.63424Z" fill="#CA0100"/>
</svg>
