<svg width="16" height="21" viewBox="0 0 16 21" fill="none" xmlns="http://www.w3.org/2000/svg">
<path d="M0.533956 11.2391C0.415224 10.2101 0.514168 9.21666 0.783294 8.29846C1.67774 5.24704 4.48378 3.003 7.81225 2.96342V0.96872C7.81225 0.857903 7.95077 0.798537 8.0418 0.865818L12.146 3.88162C12.2133 3.93307 12.2133 4.03597 12.146 4.08346L8.04575 7.09926C7.95077 7.16655 7.8162 7.10718 7.8162 6.99636V5.00562C5.62757 5.04124 3.75952 6.39083 2.9561 8.29846C2.65135 9.01877 2.497 9.81428 2.54053 10.6494C2.5999 11.7971 3.03129 12.8538 3.71202 13.7087C4.07614 14.1638 3.98907 14.8287 3.51809 15.1731C3.07087 15.5016 2.44555 15.4105 2.10122 14.9752C1.25822 13.9224 0.696224 12.6401 0.533956 11.2391ZM12.3834 7.40797C13.0681 8.25888 13.4995 9.31956 13.5549 10.4673C13.5985 11.3063 13.4402 12.1019 13.1394 12.8182C12.3359 14.7258 10.4679 16.0794 8.27926 16.111V14.1203C8.27926 14.0095 8.14074 13.9501 8.04971 14.0174L3.94553 17.0332C3.87825 17.0847 3.87825 17.1876 3.94553 17.235L8.04575 20.2508C8.14074 20.3181 8.2753 20.2588 8.2753 20.1479V18.1532C11.6038 18.1176 14.4138 15.8736 15.3043 12.8182C15.5734 11.9 15.6684 10.9066 15.5536 9.8776C15.3953 8.47656 14.8333 7.19425 13.9903 6.14149C13.642 5.70614 13.0206 5.61511 12.5734 5.9436C12.1064 6.28793 12.0193 6.95283 12.3834 7.40797Z" fill="#CA0100"/>
</svg>
