<svg width="18" height="22" viewBox="0 0 18 22" fill="none" xmlns="http://www.w3.org/2000/svg">
<path d="M0.0561054 11.7703C-0.0782496 10.6059 0.0337128 9.48179 0.338251 8.44278C1.35039 4.98985 4.52565 2.45054 8.29207 2.40576V0.148596C8.29207 0.0231979 8.44881 -0.0439796 8.55182 0.0321549L13.196 3.44477C13.2722 3.50299 13.2722 3.61943 13.196 3.67318L8.5563 7.08579C8.44881 7.16193 8.29654 7.09475 8.29654 6.96935V4.71667C5.81993 4.75697 3.70608 6.28414 2.79695 8.44278C2.4521 9.25786 2.27744 10.158 2.3267 11.103C2.39388 12.4018 2.88204 13.5975 3.65234 14.5649C4.06436 15.0799 3.96583 15.8323 3.43289 16.2219C2.92682 16.5936 2.21922 16.4906 1.82959 15.998C0.875671 14.8067 0.239724 13.3557 0.0561054 11.7703ZM13.4647 7.43512C14.2395 8.39799 14.7277 9.59823 14.7904 10.897C14.8396 11.8464 14.6605 12.7466 14.3201 13.5572C13.411 15.7159 11.2971 17.2475 8.82053 17.2833V15.0307C8.82053 14.9053 8.66378 14.8381 8.56078 14.9142L3.91657 18.3268C3.84044 18.385 3.84044 18.5015 3.91657 18.5552L8.5563 21.9678C8.66378 22.044 8.81605 21.9768 8.81605 21.8514V19.5942C12.5825 19.5539 15.7622 17.0146 16.7699 13.5572C17.0744 12.5182 17.1819 11.3941 17.052 10.2297C16.8729 8.64431 16.2369 7.19328 15.283 6.002C14.8889 5.50936 14.1858 5.40635 13.6797 5.77807C13.1512 6.1677 13.0527 6.92009 13.4647 7.43512Z" fill="#CA0100"/>
</svg>
