<svg width="160" height="98" viewBox="0 0 160 98" fill="none" xmlns="http://www.w3.org/2000/svg">
<path d="M0.524773 114.637C-0.731896 103.296 0.315328 92.3479 3.16378 82.2284C12.6307 48.5987 42.33 23.8671 77.5586 23.4309V1.44725C77.5586 0.225936 79.0247 -0.42834 79.9882 0.313172L123.427 33.5504C124.139 34.1174 124.139 35.2515 123.427 35.7749L80.0301 69.0121C79.0247 69.7536 77.6005 69.0993 77.6005 67.878V45.938C54.4359 46.3305 34.6643 61.2044 26.1608 82.2284C22.9354 90.167 21.3017 98.9342 21.7625 108.138C22.3908 120.787 26.9567 132.433 34.1616 141.855C38.0154 146.871 37.0939 154.199 32.1091 157.993C27.3756 161.614 20.7572 160.611 17.1128 155.813C8.19046 144.21 2.24222 130.078 0.524773 114.637ZM125.94 72.4143C133.187 81.7922 137.753 93.482 138.34 106.131C138.8 115.378 137.125 124.146 133.941 132.041C125.438 153.065 105.666 167.982 82.5015 168.331V146.391C82.5015 145.17 81.0354 144.515 80.072 145.257L36.6331 178.494C35.921 179.061 35.921 180.195 36.6331 180.719L80.0301 213.956C81.0354 214.697 82.4596 214.043 82.4596 212.822V190.838C117.688 190.446 147.429 165.714 156.854 132.041C159.703 121.921 160.708 110.973 159.493 99.6321C157.818 84.1913 151.87 70.0589 142.947 58.4564C139.261 53.6584 132.685 52.6552 127.951 56.2755C123.008 60.0703 122.087 67.3982 125.94 72.4143Z" fill="#EFF0F0"/>
</svg>
