<svg width="16" height="18" viewBox="0 0 16 18" fill="none" xmlns="http://www.w3.org/2000/svg">
<path d="M10.0771 14.6167C10.0771 15.9329 11.1441 17 12.4604 17V17C13.7767 17 14.8438 15.9329 14.8438 14.6167V9.20152C14.8438 7.88524 13.7767 6.81818 12.4604 6.81818V6.81818C11.1441 6.81818 10.0771 7.88524 10.0771 9.20151V14.6167Z" stroke="#CA0100" stroke-width="2"/>
<path d="M1.84375 14.6167C1.84375 15.9329 2.91081 17 4.22708 17V17C5.54336 17 6.61042 15.9329 6.61042 14.6167V3.38333C6.61042 2.06705 5.54336 1 4.22708 1V1C2.91081 1 1.84375 2.06705 1.84375 3.38333V14.6167Z" stroke="#CA0100" stroke-width="2"/>
</svg>
