<svg width="18" height="23" viewBox="0 0 18 23" fill="none" xmlns="http://www.w3.org/2000/svg">
<path d="M0.0564602 11.8447C-0.0787445 10.673 0.033926 9.54176 0.34039 8.49617C1.35893 5.02141 4.55427 2.46604 8.34451 2.42098V0.149536C8.34451 0.0233446 8.50225 -0.0442578 8.60591 0.0323582L13.2795 3.46656C13.3561 3.52515 13.3561 3.64232 13.2795 3.69641L8.61041 7.13061C8.50225 7.20722 8.34902 7.13962 8.34902 7.01343V4.7465C5.85674 4.78706 3.72952 6.32389 2.81464 8.49617C2.46761 9.31642 2.29185 10.2223 2.34142 11.1732C2.40902 12.4802 2.90027 13.6835 3.67544 14.657C4.09007 15.1753 3.99092 15.9324 3.45461 16.3245C2.94533 16.6986 2.23326 16.5949 1.84116 16.0992C0.881209 14.9004 0.24124 13.4402 0.0564602 11.8447ZM13.5499 7.48214C14.3296 8.45111 14.8208 9.65894 14.8839 10.9659C14.9335 11.9214 14.7532 12.8272 14.4107 13.643C13.4958 15.8153 11.3686 17.3566 8.87632 17.3926V15.1257C8.87632 14.9995 8.71858 14.9319 8.61492 15.0085L3.94134 18.4427C3.86473 18.5013 3.86473 18.6185 3.94134 18.6726L8.61041 22.1068C8.71858 22.1834 8.87181 22.1158 8.87181 21.9896V19.7182C12.6621 19.6776 15.8619 17.1222 16.8759 13.643C17.1824 12.5974 17.2906 11.4662 17.1599 10.2944C16.9796 8.69898 16.3396 7.23877 15.3797 6.03996C14.9831 5.54421 14.2755 5.44055 13.7662 5.81461C13.2344 6.20671 13.1353 6.96385 13.5499 7.48214Z" fill="white"/>
</svg>
