<svg width="26" height="9" viewBox="0 0 26 9" fill="none" xmlns="http://www.w3.org/2000/svg">
<path fill-rule="evenodd" clip-rule="evenodd" d="M1.76649 0L1.32459 1.16812H7.44831L7.89021 0H1.76649ZM1.1035 1.75192L0.661606 2.91977H6.78532L7.22722 1.75192H1.1035ZM0.441898 3.50383L0 4.67169H6.12372L6.56534 3.50383H0.441898Z" fill="#009FDF"/>
<mask id="mask0_2157_32108" style="mask-type:alpha" maskUnits="userSpaceOnUse" x="9" y="1" width="17" height="8">
<path d="M9.1875 8.92986H25.9505V1.77438H9.1875V8.92986Z" fill="white"/>
</mask>
<g mask="url(#mask0_2157_32108)">
<path fill-rule="evenodd" clip-rule="evenodd" d="M13.0186 5.11684V5.14149C13.2985 5.24062 13.5658 5.41395 13.7059 5.52527C14.1386 5.87195 14.3296 6.32994 14.3296 6.92417C14.3296 7.90245 13.795 8.60799 12.9167 8.83089C12.6494 8.9051 12.3695 8.93002 11.8474 8.93002H9.1875V1.77438H11.5422C12.0259 1.77438 12.3567 1.79903 12.6494 1.87324C13.5023 2.09614 14.0623 2.66572 14.0623 3.56925C14.0623 4.05216 13.8841 4.46086 13.5914 4.73306C13.4641 4.85683 13.2859 5.00553 13.0186 5.11684ZM10.6639 5.87195V7.75376H11.6823C11.9875 7.75376 12.2676 7.72911 12.4714 7.54331C12.675 7.35751 12.7641 7.12242 12.7641 6.81285C12.7641 6.57776 12.7003 6.35486 12.5731 6.19398C12.3567 5.93397 12.0894 5.87195 11.6313 5.87195H10.6639ZM10.6511 4.63393H11.4784C11.7329 4.63393 11.8602 4.63393 11.9875 4.59682C12.3314 4.4977 12.5477 4.20085 12.5477 3.79215C12.5477 3.30951 12.3185 3.0988 11.9875 2.99994C11.8474 2.96284 11.7076 2.95038 11.4275 2.95038H10.6511V4.63393ZM16.5442 8.93002V2.97503H14.4187V1.77438H20.3247L19.9047 2.97503H18.0207V8.93002H16.5442ZM20.7827 8.93002V1.77438H25.5687L25.1488 2.97503H22.2466V4.55972H23.4304C24.385 4.55972 24.8815 4.78262 25.2251 5.06728C25.4924 5.29018 25.9505 5.78528 25.9505 6.76356C25.9505 7.72911 25.4796 8.26131 25.085 8.53378C24.6269 8.84308 24.1432 8.93002 23.1631 8.93002H20.7827ZM22.2466 7.72911H23.3541C23.774 7.72911 24.0285 7.62998 24.2067 7.40708C24.2958 7.29576 24.4231 7.09751 24.4231 6.72618C24.4231 6.35486 24.2958 6.09485 24.0413 5.90905C23.8887 5.79774 23.6849 5.73599 23.3413 5.73599H22.2466V7.72911Z" fill="white"/>
</g>
</svg>
