<svg width="16" height="14" viewBox="0 0 16 14" fill="none" xmlns="http://www.w3.org/2000/svg">
<path d="M7.05381 0.766464C7.36226 -0.135381 8.63774 -0.13538 8.94619 0.766465L10.0138 3.88795C10.1522 4.29251 10.5324 4.56434 10.96 4.56434H14.3013C15.2824 4.56434 15.6768 5.83003 14.8694 6.38734L12.2559 8.19119C11.8873 8.44559 11.7328 8.91404 11.8778 9.3378L12.8966 12.3166C13.2086 13.229 12.1759 14.011 11.3823 13.4632L8.56804 11.5208C8.22612 11.2847 7.77388 11.2847 7.43195 11.5208L4.61765 13.4632C3.82408 14.011 2.79138 13.229 3.10342 12.3166L4.12224 9.3378C4.26717 8.91404 4.11268 8.44559 3.74409 8.19118L1.13063 6.38733C0.323193 5.83003 0.717583 4.56434 1.69868 4.56434H5.04001C5.46757 4.56434 5.84783 4.29251 5.9862 3.88795L7.05381 0.766464Z" fill="#FFB800"/>
</svg>
